<?xml version="1.0" encoding="iso-8859-1"?>
<!-- Generator: Adobe Illustrator 19.0.0, SVG Export Plug-In . SVG Version: 6.00 Build 0)  -->
<svg version="1.1" id="Layer_1" xmlns="http://www.w3.org/2000/svg" xmlns:xlink="http://www.w3.org/1999/xlink" x="0px" y="0px"
	 viewBox="0 0 512.001 512.001" style="enable-background:new 0 0 512.001 512.001;" xml:space="preserve">
<g>
	<g>
		<path d="M508.347,451.205c-3.673-2.34-8.546-1.254-10.885,2.419l-22.574,35.474L351.083,281.964
			c-2.233-3.737-7.074-4.957-10.813-2.723s-4.957,7.074-2.723,10.813l123.231,206.175h-144.9l30.064-33.07
			c1.796-1.977,2.471-4.728,1.79-7.31l-1.824-6.93h15.225c4.355,0,7.885-3.529,7.885-7.885v-67.285c0-4.356-3.53-7.885-7.885-7.885
			h-37.081l-46.259-175.784l41.815,69.96c2.234,3.739,7.074,4.96,10.813,2.723c3.739-2.234,4.957-7.074,2.723-10.813
			l-67.222-112.469l12.475-12.475c3.037-3.038,3.038-8.114,0-11.151c-3.037-3.037-8.113-3.036-11.15,0l-11.246,11.246
			l-11.246-11.246c-3.079-3.078-8.072-3.078-11.15,0c-3.079,3.08-3.079,8.072,0,11.151l12.476,12.476L37.114,489.098l-22.575-35.475
			c-2.338-3.673-7.211-4.759-10.885-2.419c-3.674,2.338-4.757,7.211-2.419,10.885l29.437,46.259c1.433,2.25,4.013,3.652,6.675,3.652
			h437.309c2.664,0,5.249-1.392,6.675-3.652l29.437-46.259C513.105,458.416,512.022,453.542,508.347,451.205z M248.116,496.23
			H51.223l196.893-329.418V496.23z M353.249,381.635v51.515h-11.49l-13.557-51.515H353.249z M263.886,496.23V275.905L289.21,496.23
			H263.886z M276.415,246.812l54.976,208.909l-27.488,30.237L276.415,246.812z"/>
	</g>
</g>
<g>
	<g>
		<path d="M218.153,365.865h-67.285c-4.355,0-7.885,3.529-7.885,7.885v67.285c0,4.356,3.53,7.885,7.885,7.885h67.285
			c4.355,0,7.885-3.529,7.885-7.885V373.75C226.038,369.395,222.507,365.865,218.153,365.865z M210.268,433.151h-51.515v-51.515
			h51.515V433.151z"/>
	</g>
</g>
<g>
	<g>
		<path d="M168.523,117.481c-23.814-2.533-41.772-22.53-41.772-46.514c0-23.984,17.959-43.981,41.772-46.514
			c3.292-0.35,6.076-2.806,6.837-6.025c0.786-3.324-0.721-6.87-3.665-8.607c-10.888-6.423-23.339-9.818-36.008-9.818
			c-39.131,0-70.965,31.834-70.965,70.965c0,39.13,31.835,70.965,70.965,70.965c12.67,0,25.122-3.395,36.008-9.818
			c2.944-1.737,4.451-5.283,3.665-8.607C174.597,120.287,171.813,117.831,168.523,117.481z M135.686,126.162
			c-30.435,0-55.195-24.761-55.195-55.195c0-30.434,24.761-55.195,55.195-55.195c2.481,0,4.952,0.167,7.394,0.498
			c-19.302,10.718-32.1,31.286-32.1,54.696s12.798,43.978,32.1,54.697C140.638,125.994,138.168,126.162,135.686,126.162z"/>
	</g>
</g>
<g>
	<g>
		<path d="M388.503,34.055c-1.056-3.25-4.083-5.449-7.499-5.449h-24.349l-7.524-23.157C348.075,2.2,345.048,0,341.631,0
			c-3.416,0-6.444,2.2-7.499,5.449l-7.524,23.157h-24.349c-3.416,0-6.444,2.199-7.499,5.449c-1.055,3.25,0.101,6.809,2.865,8.816
			l19.699,14.312l-7.524,23.158c-0.96,2.952-0.057,6.273,2.266,8.332c2.739,2.429,6.905,2.637,9.868,0.483l19.699-14.312
			l19.698,14.312c2.824,2.052,6.775,1.973,9.517-0.187c2.566-2.022,3.627-5.522,2.618-8.628l-7.524-23.158l19.699-14.312
			C388.402,40.863,389.558,37.304,388.503,34.055z M352.036,47.794c-2.764,2.007-3.92,5.567-2.865,8.815l1.796,5.526l-4.699-3.415
			c-2.765-2.008-6.507-2.009-9.27,0l-4.701,3.415l1.796-5.526c1.055-3.249-0.101-6.808-2.865-8.815l-4.701-3.416h5.809
			c3.416,0,6.444-2.199,7.499-5.449l1.796-5.526l1.796,5.526c1.056,3.25,4.083,5.449,7.499,5.449h5.811L352.036,47.794z"/>
	</g>
</g>
<g>
	<g>
		<path d="M511.614,189.654c-1.056-3.25-4.083-5.449-7.499-5.449h-24.349l-7.524-23.157c-1.055-3.25-4.083-5.449-7.499-5.449
			c-3.417,0-6.444,2.199-7.499,5.449l-7.524,23.157H425.37c-3.416,0-6.444,2.199-7.499,5.449c-1.055,3.248,0.101,6.807,2.865,8.814
			l19.699,14.312l-7.524,23.158c-1.01,3.107,0.052,6.607,2.618,8.628c2.742,2.161,6.692,2.239,9.517,0.187l19.698-14.312
			l19.699,14.312c2.964,2.153,7.129,1.946,9.868-0.483c2.322-2.06,3.226-5.38,2.266-8.332l-7.524-23.158l19.699-14.312
			C511.513,196.462,512.669,192.903,511.614,189.654z M475.147,203.391c-2.764,2.007-3.92,5.567-2.865,8.815l1.796,5.526
			l-4.701-3.415c-1.381-1.004-3.008-1.507-4.634-1.507s-3.253,0.503-4.635,1.507l-4.699,3.415l1.796-5.526
			c1.056-3.249-0.101-6.808-2.865-8.815l-4.701-3.416h5.809c3.416,0,6.444-2.199,7.499-5.449l1.796-5.526l1.796,5.526
			c1.056,3.25,4.083,5.449,7.499,5.449h5.811L475.147,203.391z"/>
	</g>
</g>
<g>
	<g>
		<path d="M94.081,256.795c-1.086-3.14-4.125-5.307-7.45-5.307H62.283l-7.524-23.157c-1.056-3.25-4.082-5.449-7.499-5.449
			c-3.416,0-6.444,2.2-7.499,5.449l-7.524,23.157H7.887c-3.324,0-6.364,2.166-7.45,5.307c-1.122,3.244,0.037,6.941,2.815,8.958
			l19.699,14.312l-7.524,23.158c-0.96,2.952-0.057,6.273,2.266,8.332c2.739,2.429,6.905,2.637,9.868,0.483l19.699-14.312
			l19.698,14.312c2.824,2.052,6.775,1.973,9.517-0.187c2.566-2.022,3.627-5.522,2.618-8.628l-7.524-23.158l19.699-14.312
			C94.044,263.735,95.203,260.038,94.081,256.795z M57.664,270.676c-2.764,2.007-3.92,5.567-2.865,8.815l1.796,5.526l-4.699-3.415
			c-2.765-2.008-6.507-2.009-9.27,0l-4.701,3.415l1.796-5.526c1.055-3.249-0.101-6.808-2.865-8.815l-4.701-3.416h5.809v0
			c3.416,0,6.444-2.199,7.499-5.449l1.796-5.526l1.796,5.526c1.056,3.25,4.083,5.449,7.499,5.449h5.811L57.664,270.676z"/>
	</g>
</g>
<g>
</g>
<g>
</g>
<g>
</g>
<g>
</g>
<g>
</g>
<g>
</g>
<g>
</g>
<g>
</g>
<g>
</g>
<g>
</g>
<g>
</g>
<g>
</g>
<g>
</g>
<g>
</g>
<g>
</g>
</svg>
