<?xml version="1.0" encoding="iso-8859-1"?>
<!-- Generator: Adobe Illustrator 19.0.0, SVG Export Plug-In . SVG Version: 6.00 Build 0)  -->
<svg version="1.1" id="Layer_1" xmlns="http://www.w3.org/2000/svg" xmlns:xlink="http://www.w3.org/1999/xlink" x="0px" y="0px"
	 viewBox="0 0 512 512" style="enable-background:new 0 0 512 512;" xml:space="preserve">
<g>
	<g>
		<path d="M511.957,53.886l-0.318-11.366l-11.029-2.765c-1.323-0.332-32.865-8.125-74.018-8.449
			c-55.625-0.415-102.324,13.233-135.08,39.535l-6.419,5.156c-24.107,19.357-39.232,46.944-42.589,77.678
			c-3.192,29.206,4.615,57.928,22.011,81.399v56.254c-4.646-4.584-9.433-8.672-14.354-12.265
			c-13.575-48.412-62.935-78.462-112.637-67.51l-6.435,1.418C51.117,230.594,6.612,325.425,4.758,329.453L0,339.781l8.657,7.371
			c2.987,2.543,66.116,55.523,136.005,55.523c9.119,0,18.358-0.903,27.589-2.938l6.436-1.418
			c38.634-8.516,66.665-39.422,73.464-76.074c4.24,5.142,8.362,10.89,12.364,17.235v141.223h30.005V263.32
			c18.978,12.305,41.005,18.621,63.157,18.621c25.433,0,51.03-8.321,72.359-25.448l6.42-5.156h-0.001
			C514.807,188.42,512.11,59.35,511.957,53.886z M172.228,369.019l-6.435,1.418c-51.368,11.319-106.646-23.317-128.269-38.926
			c13.064-23.263,48.663-77.921,100.022-89.241l6.435-1.418c23.707-5.223,47.287,3.159,62.601,19.903
			c-49.541-7.366-94.101,26.29-118.333,44.599l18.089,23.94c21.154-15.984,60.526-45.736,98.55-38.402
			c6.298,1.215,12.442,3.436,18.42,6.641C227.075,330.492,205.321,361.725,172.228,369.019z M417.669,227.942l-6.42,5.156
			c-17.857,14.339-40.231,20.868-62.997,18.379c-20.467-2.236-39.034-11.536-52.998-26.363
			c11.025-64.985,85.241-83.667,125.652-93.834l-7.319-29.099c-22.353,5.624-56.132,14.121-86.153,32.202
			c-24.491,14.751-42,33.275-52.373,55.326c-2.987-10.506-3.953-21.593-2.73-32.778c2.487-22.767,13.691-43.201,31.549-57.542
			l6.419-5.155c33.77-27.117,80.159-32.936,113.73-32.936c0.552,0,1.102,0.002,1.646,0.005c23.595,0.133,44.034,3.031,56.097,5.197
			c-0.488,12.25-2.073,32.83-7.038,55.896C467.646,155.333,451.992,200.379,417.669,227.942z"/>
	</g>
</g>
<g>
</g>
<g>
</g>
<g>
</g>
<g>
</g>
<g>
</g>
<g>
</g>
<g>
</g>
<g>
</g>
<g>
</g>
<g>
</g>
<g>
</g>
<g>
</g>
<g>
</g>
<g>
</g>
<g>
</g>
</svg>
