<?xml version="1.0" encoding="iso-8859-1"?>
<!-- Generator: Adobe Illustrator 19.0.0, SVG Export Plug-In . SVG Version: 6.00 Build 0)  -->
<svg version="1.1" id="Layer_1" xmlns="http://www.w3.org/2000/svg" xmlns:xlink="http://www.w3.org/1999/xlink" x="0px" y="0px"
	 viewBox="0 0 512 512" style="enable-background:new 0 0 512 512;" xml:space="preserve">
<g>
	<g>
		<path d="M495.304,478.609H330.053c-15.488-17.72-23.966-40.161-23.966-63.918v-53.18c18.306,6.488,37.172,7.384,55.6,3.39
			c32.703-7.087,60.255-31.577,71.904-63.913c8.409-23.341,7.889-47.888-0.667-70.019c15.949-19.03,24.357-43.245,23.339-68.142
			c-1.201-29.406-17.857-58.238-44.554-77.126c-19.566-13.844-39.752-20.021-61.348-18.698C336.542,27.37,299.093,0,256,0
			c-43.079,0-80.519,27.353-94.347,66.965c-22.771-1.298-42.827,5.621-61.362,18.735c-26.696,18.888-43.352,47.722-44.553,77.126
			c-1.022,25.02,7.469,49.357,23.571,68.429c-8.948,22.548-9.295,46.431-0.895,69.74c11.652,32.337,39.208,56.825,71.91,63.908
			c19.002,4.116,38.154,2.81,55.589-3.331v53.119c0,23.757-8.478,46.198-23.966,63.918H16.696C7.475,478.608,0,486.083,0,495.303
			S7.475,512,16.696,512c6.998,0,469.25,0,478.609,0c9.22,0,16.696-7.475,16.696-16.696S504.525,478.609,495.304,478.609z
			 M157.391,332.268c-21.227-4.597-39.898-21.316-47.564-42.593c-6.597-18.306-5.216-36.411,4.107-53.812
			c3.584-6.692,2.203-14.959-3.361-20.123c-14.438-13.397-22.265-32.186-21.474-51.551c0.781-19.131,12.174-38.282,30.476-51.231
			c26.08-18.449,43.55-11.767,52.601-10.779c11.583,2.903,22.209,8.891,30.871,17.554c6.519,6.52,17.091,6.521,23.611,0
			c6.52-6.52,6.52-17.091,0-23.611c-9.373-9.373-20.279-16.652-32.149-21.62c10.13-24.486,34.097-41.111,61.49-41.111
			c32.345,0,59.92,23.176,65.568,55.107c1.656,9.36,10.789,15.451,20.065,13.389c18.739-4.168,33.928-0.858,50.789,11.071
			c18.302,12.949,29.696,32.1,30.477,51.231c0.518,12.672-2.676,25.087-8.977,35.916c-1.169-1.294-2.369-2.567-3.611-3.809
			c-6.519-6.519-17.091-6.52-23.611,0c-6.52,6.52-6.52,17.091,0,23.611c3.942,3.942,7.332,8.292,10.128,12.952
			c1.459,4.767,16.484,25.895,5.346,56.81c-7.664,21.277-26.332,37.997-47.559,42.597c-25.25,5.469-47.853-3.037-65.966-20.27
			c-9.307-8.855-21.291-13.252-33.263-13.252c-12.676,0-25.337,4.932-34.776,14.726C204.386,330.3,180.754,337.328,157.391,332.268z
			 M222.677,478.609c10.854-19.302,16.628-41.167,16.628-63.918v-72.904c1.833-1.642,3.621-3.35,5.347-5.141
			c5.662-5.874,15.075-6.078,20.982-0.457c2.304,2.193,4.666,4.25,7.063,6.216v72.287c0,22.751,5.774,44.615,16.628,63.918H222.677z
			"/>
	</g>
</g>
<g>
</g>
<g>
</g>
<g>
</g>
<g>
</g>
<g>
</g>
<g>
</g>
<g>
</g>
<g>
</g>
<g>
</g>
<g>
</g>
<g>
</g>
<g>
</g>
<g>
</g>
<g>
</g>
<g>
</g>
</svg>
