<?xml version="1.0" encoding="iso-8859-1"?>
<!-- Generator: Adobe Illustrator 19.0.0, SVG Export Plug-In . SVG Version: 6.00 Build 0)  -->
<svg version="1.1" id="Layer_1" xmlns="http://www.w3.org/2000/svg" xmlns:xlink="http://www.w3.org/1999/xlink" x="0px" y="0px"
	 viewBox="0 0 512.002 512.002" style="enable-background:new 0 0 512.002 512.002;" xml:space="preserve">
<g>
	<g>
		<g>
			<path d="M232.511,243.569l-1.452,1.203c-4.27,3.537-4.865,9.867-1.326,14.137c1.986,2.397,4.85,3.636,7.737,3.636
				c2.257,0,4.526-0.757,6.4-2.309l1.452-1.203c4.27-3.537,4.865-9.866,1.326-14.137
				C243.111,240.624,236.78,240.031,232.511,243.569z"/>
			<path d="M262.955,231.977c1.986,2.397,4.85,3.636,7.737,3.636c2.257,0,4.527-0.757,6.401-2.309l43.285-35.863
				c4.27-3.537,4.863-9.866,1.325-14.137c-3.538-4.271-9.868-4.863-14.137-1.325l-43.285,35.863
				C260.011,221.377,259.417,227.707,262.955,231.977z"/>
			<path d="M453.88,165.036c14.637-17.991,22.595-40.276,22.595-63.786c0-27.058-10.537-52.496-29.67-71.629
				C409.827-7.357,351.141-9.712,311.394,22.55l-3.684-3.684c-3.921-3.921-10.278-3.921-14.2,0c-3.921,3.921-3.921,10.278,0,14.2
				l3.615,3.615c-14.995,18.099-22.715,40.232-23.167,62.489L129.915,273.03c-0.022,0.026-0.044,0.053-0.065,0.08
				c-14.746,18.175-15.441,43.334-2.79,62.059l-76.815,76.815c-19.624,19.624-19.624,51.554,0,71.178
				c9.506,9.506,22.146,14.742,35.589,14.742c13.444,0,26.082-5.235,35.588-14.741l19.382-19.382
				c5.713-5.713,13.309-8.859,21.39-8.859s15.677,3.147,21.391,8.86l45.278,45.277c1.961,1.961,4.53,2.941,7.099,2.941
				c2.569,0,5.14-0.981,7.099-2.941c3.921-3.921,3.921-10.278,0-14.199l-45.277-45.277c-9.506-9.506-22.146-14.741-35.589-14.741
				s-26.082,5.235-35.588,14.741l-19.382,19.382c-5.713,5.713-13.309,8.859-21.39,8.859c-8.08,0-15.677-3.147-21.39-8.86
				c-11.795-11.794-11.795-30.985,0-42.779l76.819-76.819c8.765,5.921,18.935,8.926,29.144,8.926c11.6,0,23.246-3.87,32.913-11.713
				c0.027-0.021,0.053-0.043,0.08-0.065l173.85-144.036c22.26-0.451,44.396-8.178,62.498-23.176l3.616,3.616
				c1.961,1.961,4.53,2.941,7.099,2.941c2.569,0,5.14-0.98,7.099-2.941c3.921-3.921,3.921-10.278,0-14.2L453.88,165.036z
				 M190.628,331.015c-12.826,10.375-31.283,9.406-42.952-2.264c-11.67-11.67-12.64-30.126-2.264-42.952L284.63,117.768
				l74.03,74.031L190.628,331.015z M377.627,182.368l-83.567-83.567c0.503-16.98,6.279-33.826,17.345-47.841l114.064,114.065
				C411.453,176.089,394.606,181.865,377.627,182.368z M439.573,150.729L325.707,36.863c14.53-11.18,31.994-16.792,49.471-16.792
				c20.798,0,41.596,7.917,57.43,23.75c15.339,15.339,23.788,35.735,23.788,57.43C456.396,119.386,450.472,136.603,439.573,150.729z
				"/>
		</g>
	</g>
</g>
<g>
</g>
<g>
</g>
<g>
</g>
<g>
</g>
<g>
</g>
<g>
</g>
<g>
</g>
<g>
</g>
<g>
</g>
<g>
</g>
<g>
</g>
<g>
</g>
<g>
</g>
<g>
</g>
<g>
</g>
</svg>
