<?xml version="1.0" encoding="iso-8859-1"?>
<!-- Generator: Adobe Illustrator 19.0.0, SVG Export Plug-In . SVG Version: 6.00 Build 0)  -->
<svg version="1.1" id="Layer_1" xmlns="http://www.w3.org/2000/svg" xmlns:xlink="http://www.w3.org/1999/xlink" x="0px" y="0px"
	 viewBox="0 0 512.001 512.001" style="enable-background:new 0 0 512.001 512.001;" xml:space="preserve">
<g>
	<g>
		<path d="M424.569,148.582c-7.12-15.664-15.64-30.37-25.328-43.711c-2.577-3.548-7.542-4.332-11.087-1.759
			c-3.548,2.577-4.336,7.539-1.76,11.087c9.062,12.48,17.044,26.259,23.722,40.953c1.33,2.926,4.213,4.654,7.231,4.654
			c1.097,0,2.214-0.23,3.28-0.713C424.618,157.279,426.383,152.573,424.569,148.582z"/>
	</g>
</g>
<g>
	<g>
		<path d="M441.222,196.502c-2.216-8.86-4.862-17.648-7.865-26.122c-1.466-4.129-6-6.29-10.133-4.829
			c-4.133,1.464-6.295,6.002-4.83,10.133c2.835,7.999,5.334,16.298,7.429,24.671c0.902,3.606,4.137,6.013,7.694,6.013
			c0.637,0,1.286-0.077,1.932-0.24C439.701,205.065,442.287,200.755,441.222,196.502z"/>
	</g>
</g>
<g>
	<g>
		<path d="M429.237,97.156C384.84,52.759,326.402,27.516,263.938,25.54V7.937c0-4.384-3.553-7.937-7.937-7.937
			c-4.383,0-7.937,3.553-7.937,7.937V25.54C185.599,27.516,127.16,52.759,82.764,97.156
			C36.49,143.429,11.007,204.952,11.007,270.393c0,4.385,3.554,7.937,7.937,7.937h1.975c3.511,0,6.606-2.307,7.607-5.672
			c4.941-16.599,20.498-28.193,37.83-28.193c17.332,0,32.888,11.594,37.831,28.193c1.002,3.366,4.096,5.672,7.607,5.672h3.948
			c0.073,0,0.143-0.016,0.216-0.018c0.116,0.005,0.232,0.018,0.349,0.018h1.164c4.383,0,7.937-3.553,7.937-7.937
			c0-0.819-0.13-1.606-0.361-2.35c6.251-14.229,20.376-23.578,36.131-23.578c15.775,0,29.776,9.213,36.093,23.57
			c-0.002,0.785-0.005,1.569-0.005,2.358c0,4.385,3.554,7.937,7.937,7.937h0.423c0.206,0,0.409-0.015,0.611-0.031
			c0.127,0.006,0.25,0.031,0.378,0.031h3.95c3.511,0,6.605-2.307,7.607-5.672c4.173-14.013,15.909-24.458,29.892-27.373v211.79
			v3.811c0,0.819,0.125,1.61,0.355,2.353c3.074,27.395,26.368,48.763,54.571,48.763c30.285,0,54.924-24.639,54.924-54.925
			c0-4.385-3.553-7.937-7.937-7.937c-4.385,0-7.937,3.553-7.937,7.937c0,21.533-17.518,39.051-39.05,39.051
			c-21.532,0-39.051-17.519-39.051-39.051V245.284c13.983,2.915,25.721,13.36,29.892,27.373c1.002,3.366,4.097,5.672,7.608,5.672
			h3.948c0.192,0,0.377-0.033,0.566-0.047c0.278,0.03,0.56,0.047,0.846,0.047c4.385,0,7.937-3.553,7.937-7.937
			c0-0.788-0.003-1.573-0.006-2.357c6.317-14.357,20.318-23.57,36.094-23.57c16.468,0,31.154,10.217,36.931,25.544l0.003,0.384
			c0,4.385,3.553,7.937,7.937,7.937c0.119,0,0.233-0.013,0.349-0.018c0.073,0.002,0.143,0.018,0.216,0.018h3.948
			c3.511,0,6.605-2.307,7.608-5.672c4.942-16.598,20.498-28.193,37.83-28.193c17.332,0,32.887,11.594,37.83,28.193
			c1.002,3.366,4.097,5.672,7.608,5.672h1.974c4.385,0,7.937-3.553,7.937-7.937C500.994,204.952,475.511,143.429,429.237,97.156z
			 M108.952,248.69c-10.328-12.393-25.871-20.1-42.597-20.1c-14.367,0-27.866,5.683-37.932,15.142
			C39.069,152.244,103.832,77.048,189.757,51.05c-14.312,11.857-27.479,27.654-39.005,47.077
			C126.515,138.971,111.923,191.838,108.952,248.69z M197.623,242.23c-9.855-8.632-22.672-13.639-36.445-13.639
			c-13.476,0-26.1,4.884-35.889,13.218c7.099-98.212,50.254-177.446,105.454-196.268c-6.905,12.403-12.966,30.494-18.132,54.229
			C204.192,138.458,198.976,188.348,197.623,242.23z M256.001,228.59c-16.754,0-32.32,7.731-42.647,20.159
			c1.073-55.236,6.237-106.405,14.768-145.605c10.652-48.941,22.893-61.872,27.878-61.872s17.227,12.931,27.878,61.872
			c8.531,39.201,13.694,90.368,14.767,145.605C288.32,236.321,272.754,228.59,256.001,228.59z M350.823,228.59
			c-13.775,0-26.592,5.007-36.445,13.64c-1.352-53.882-6.569-103.773-14.989-142.461c-5.166-23.735-11.226-41.826-18.132-54.229
			c55.199,18.823,98.354,98.056,105.454,196.268C376.923,233.474,364.301,228.59,350.823,228.59z M445.646,228.59
			c-16.726,0-32.27,7.708-42.597,20.1c-2.971-56.852-17.563-109.72-41.8-150.565c-11.526-19.424-24.693-35.22-39.005-47.078
			c85.925,25.998,150.689,101.195,161.335,192.682C473.512,234.273,460.013,228.59,445.646,228.59z"/>
	</g>
</g>
<g>
</g>
<g>
</g>
<g>
</g>
<g>
</g>
<g>
</g>
<g>
</g>
<g>
</g>
<g>
</g>
<g>
</g>
<g>
</g>
<g>
</g>
<g>
</g>
<g>
</g>
<g>
</g>
<g>
</g>
</svg>
