<?xml version="1.0" encoding="iso-8859-1"?>
<!-- Generator: Adobe Illustrator 19.0.0, SVG Export Plug-In . SVG Version: 6.00 Build 0)  -->
<svg version="1.1" id="Layer_1" xmlns="http://www.w3.org/2000/svg" xmlns:xlink="http://www.w3.org/1999/xlink" x="0px" y="0px"
	 viewBox="0 0 512 512" style="enable-background:new 0 0 512 512;" xml:space="preserve">
<g>
	<g>
		<path d="M418.133,209.068c-13.67,0-26.633,3.004-38.357,8.286l-27.324-48.58l13.38-23.791c0.751-1.331,0.973-2.756,0.973-4.181
			H384c2.27,0,4.437-0.896,6.033-2.5l8.533-8.533c3.337-3.337,3.337-8.73,0-12.066c-3.336-3.337-8.73-3.337-12.066,0l-6.033,6.033
			h-64.734c-4.719,0-8.533,3.823-8.533,8.533s3.814,8.533,8.533,8.533h32.879l-9.6,17.067H166.511l9.993-25.6h36.83
			c4.719,0,8.533-3.823,8.533-8.533s-3.814-8.533-8.533-8.533H164.83l-38.767,99.678c-10.061-3.695-20.872-5.811-32.196-5.811
			C42.112,209.068,0,251.18,0,302.934c0,51.755,42.112,93.867,93.867,93.867c51.755,0,93.867-42.112,93.867-93.867
			c0-34.389-18.645-64.444-46.31-80.785l6.298-16.137l93.312,85.538c-1.28,3.575-2.099,7.373-2.099,11.383
			c0,18.825,15.309,34.133,34.133,34.133c15.863,0,29.107-10.923,32.922-25.6h18.714c4.326,47.77,44.552,85.333,93.431,85.333
			c51.755,0,93.867-42.112,93.867-93.867C512,251.18,469.888,209.068,418.133,209.068z M170.667,302.934
			c0,42.342-34.449,76.8-76.8,76.8c-42.351,0-76.8-34.458-76.8-76.8s34.449-76.8,76.8-76.8c9.148,0,17.877,1.69,26.018,4.634
			l-16.572,42.607l-16.546,24.823c-2.62,3.917-1.562,9.225,2.364,11.836c1.459,0.973,3.106,1.434,4.727,1.434
			c2.756,0,5.47-1.331,7.108-3.797l17.067-25.6l17.092-43.802C156.459,251.922,170.667,275.781,170.667,302.934z M403.541,294.401
			h-61.705c2.458-22.084,14.336-41.327,31.488-53.717L403.541,294.401z M154.377,188.955l5.47-14.02h169.566l-52.992,94.208
			c-1.118-0.111-2.202-0.341-3.354-0.341c-8.568,0-16.307,3.277-22.306,8.508L154.377,188.955z M273.067,320.001
			c-9.412,0-17.067-7.654-17.067-17.067s7.654-17.067,17.067-17.067c9.412,0,17.067,7.654,17.067,17.067
			S282.479,320.001,273.067,320.001z M305.988,294.401c-2.057-7.919-6.818-14.737-13.329-19.337l50.005-88.892l22.238,39.535
			c-22.315,15.428-37.623,40.235-40.201,68.693H305.988z M418.133,379.734c-39.467,0-72.038-29.926-76.297-68.267h76.297
			c3.029,0,5.837-1.604,7.364-4.224s1.562-5.854,0.068-8.491l-37.419-66.517c9.225-3.925,19.354-6.101,29.986-6.101
			c42.351,0,76.8,34.458,76.8,76.8S460.484,379.734,418.133,379.734z"/>
	</g>
</g>
<g>
</g>
<g>
</g>
<g>
</g>
<g>
</g>
<g>
</g>
<g>
</g>
<g>
</g>
<g>
</g>
<g>
</g>
<g>
</g>
<g>
</g>
<g>
</g>
<g>
</g>
<g>
</g>
<g>
</g>
</svg>
