<svg xmlns="http://www.w3.org/2000/svg">
    <symbol id="arrow-down" viewBox="0 0 48 48">
      <path d="M14.83 16.42l9.17 9.17 9.17-9.17 2.83 2.83-12 12-12-12z"/><path d="M0-.75h48v48h-48z" fill="none"/>
    </symbol>
    <symbol id="arrow-left" viewBox="0 0 512 512">
      <polygon points="352,128.4 319.7,96 160,256 160,256 160,256 319.7,416 352,383.6 224.7,256 "/>
    </symbol>
    <symbol id="arrow-right" viewBox="0 0 48 48">
      <path d="M17.17 32.92l9.17-9.17-9.17-9.17 2.83-2.83 12 12-12 12z"/><path d="M0-.25h48v48h-48z" fill="none"/>
    </symbol>
    <symbol id="arrow-up" viewBox="0 0 48 48">
      <path d="M14.83 30.83l9.17-9.17 9.17 9.17 2.83-2.83-12-12-12 12z"/><path d="M0 0h48v48h-48z" fill="none"/>
    </symbol>
    <symbol id="culture" viewBox="0 0 512.001 512.001">
       <g> <g> <path d="M508.347,451.205c-3.673-2.34-8.546-1.254-10.885,2.419l-22.574,35.474L351.083,281.964
			c-2.233-3.737-7.074-4.957-10.813-2.723s-4.957,7.074-2.723,10.813l123.231,206.175h-144.9l30.064-33.07
			c1.796-1.977,2.471-4.728,1.79-7.31l-1.824-6.93h15.225c4.355,0,7.885-3.529,7.885-7.885v-67.285c0-4.356-3.53-7.885-7.885-7.885
			h-37.081l-46.259-175.784l41.815,69.96c2.234,3.739,7.074,4.96,10.813,2.723c3.739-2.234,4.957-7.074,2.723-10.813
			l-67.222-112.469l12.475-12.475c3.037-3.038,3.038-8.114,0-11.151c-3.037-3.037-8.113-3.036-11.15,0l-11.246,11.246
			l-11.246-11.246c-3.079-3.078-8.072-3.078-11.15,0c-3.079,3.08-3.079,8.072,0,11.151l12.476,12.476L37.114,489.098l-22.575-35.475
			c-2.338-3.673-7.211-4.759-10.885-2.419c-3.674,2.338-4.757,7.211-2.419,10.885l29.437,46.259c1.433,2.25,4.013,3.652,6.675,3.652
			h437.309c2.664,0,5.249-1.392,6.675-3.652l29.437-46.259C513.105,458.416,512.022,453.542,508.347,451.205z M248.116,496.23
			H51.223l196.893-329.418V496.23z M353.249,381.635v51.515h-11.49l-13.557-51.515H353.249z M263.886,496.23V275.905L289.21,496.23
			H263.886z M276.415,246.812l54.976,208.909l-27.488,30.237L276.415,246.812z"/> </g> </g> <g> <g> <path d="M218.153,365.865h-67.285c-4.355,0-7.885,3.529-7.885,7.885v67.285c0,4.356,3.53,7.885,7.885,7.885h67.285
			c4.355,0,7.885-3.529,7.885-7.885V373.75C226.038,369.395,222.507,365.865,218.153,365.865z M210.268,433.151h-51.515v-51.515
			h51.515V433.151z"/> </g> </g> <g> <g> <path d="M168.523,117.481c-23.814-2.533-41.772-22.53-41.772-46.514c0-23.984,17.959-43.981,41.772-46.514
			c3.292-0.35,6.076-2.806,6.837-6.025c0.786-3.324-0.721-6.87-3.665-8.607c-10.888-6.423-23.339-9.818-36.008-9.818
			c-39.131,0-70.965,31.834-70.965,70.965c0,39.13,31.835,70.965,70.965,70.965c12.67,0,25.122-3.395,36.008-9.818
			c2.944-1.737,4.451-5.283,3.665-8.607C174.597,120.287,171.813,117.831,168.523,117.481z M135.686,126.162
			c-30.435,0-55.195-24.761-55.195-55.195c0-30.434,24.761-55.195,55.195-55.195c2.481,0,4.952,0.167,7.394,0.498
			c-19.302,10.718-32.1,31.286-32.1,54.696s12.798,43.978,32.1,54.697C140.638,125.994,138.168,126.162,135.686,126.162z"/> </g> </g> <g> <g> <path d="M388.503,34.055c-1.056-3.25-4.083-5.449-7.499-5.449h-24.349l-7.524-23.157C348.075,2.2,345.048,0,341.631,0
			c-3.416,0-6.444,2.2-7.499,5.449l-7.524,23.157h-24.349c-3.416,0-6.444,2.199-7.499,5.449c-1.055,3.25,0.101,6.809,2.865,8.816
			l19.699,14.312l-7.524,23.158c-0.96,2.952-0.057,6.273,2.266,8.332c2.739,2.429,6.905,2.637,9.868,0.483l19.699-14.312
			l19.698,14.312c2.824,2.052,6.775,1.973,9.517-0.187c2.566-2.022,3.627-5.522,2.618-8.628l-7.524-23.158l19.699-14.312
			C388.402,40.863,389.558,37.304,388.503,34.055z M352.036,47.794c-2.764,2.007-3.92,5.567-2.865,8.815l1.796,5.526l-4.699-3.415
			c-2.765-2.008-6.507-2.009-9.27,0l-4.701,3.415l1.796-5.526c1.055-3.249-0.101-6.808-2.865-8.815l-4.701-3.416h5.809
			c3.416,0,6.444-2.199,7.499-5.449l1.796-5.526l1.796,5.526c1.056,3.25,4.083,5.449,7.499,5.449h5.811L352.036,47.794z"/> </g> </g> <g> <g> <path d="M511.614,189.654c-1.056-3.25-4.083-5.449-7.499-5.449h-24.349l-7.524-23.157c-1.055-3.25-4.083-5.449-7.499-5.449
			c-3.417,0-6.444,2.199-7.499,5.449l-7.524,23.157H425.37c-3.416,0-6.444,2.199-7.499,5.449c-1.055,3.248,0.101,6.807,2.865,8.814
			l19.699,14.312l-7.524,23.158c-1.01,3.107,0.052,6.607,2.618,8.628c2.742,2.161,6.692,2.239,9.517,0.187l19.698-14.312
			l19.699,14.312c2.964,2.153,7.129,1.946,9.868-0.483c2.322-2.06,3.226-5.38,2.266-8.332l-7.524-23.158l19.699-14.312
			C511.513,196.462,512.669,192.903,511.614,189.654z M475.147,203.391c-2.764,2.007-3.92,5.567-2.865,8.815l1.796,5.526
			l-4.701-3.415c-1.381-1.004-3.008-1.507-4.634-1.507s-3.253,0.503-4.635,1.507l-4.699,3.415l1.796-5.526
			c1.056-3.249-0.101-6.808-2.865-8.815l-4.701-3.416h5.809c3.416,0,6.444-2.199,7.499-5.449l1.796-5.526l1.796,5.526
			c1.056,3.25,4.083,5.449,7.499,5.449h5.811L475.147,203.391z"/> </g> </g> <g> <g> <path d="M94.081,256.795c-1.086-3.14-4.125-5.307-7.45-5.307H62.283l-7.524-23.157c-1.056-3.25-4.082-5.449-7.499-5.449
			c-3.416,0-6.444,2.2-7.499,5.449l-7.524,23.157H7.887c-3.324,0-6.364,2.166-7.45,5.307c-1.122,3.244,0.037,6.941,2.815,8.958
			l19.699,14.312l-7.524,23.158c-0.96,2.952-0.057,6.273,2.266,8.332c2.739,2.429,6.905,2.637,9.868,0.483l19.699-14.312
			l19.698,14.312c2.824,2.052,6.775,1.973,9.517-0.187c2.566-2.022,3.627-5.522,2.618-8.628l-7.524-23.158l19.699-14.312
			C94.044,263.735,95.203,260.038,94.081,256.795z M57.664,270.676c-2.764,2.007-3.92,5.567-2.865,8.815l1.796,5.526l-4.699-3.415
			c-2.765-2.008-6.507-2.009-9.27,0l-4.701,3.415l1.796-5.526c1.055-3.249-0.101-6.808-2.865-8.815l-4.701-3.416h5.809v0
			c3.416,0,6.444-2.199,7.499-5.449l1.796-5.526l1.796,5.526c1.056,3.25,4.083,5.449,7.499,5.449h5.811L57.664,270.676z"/> </g> </g>                
    </symbol>
    <symbol id="download" viewBox="0 0 516.451 516.451">
       <g> <g> <g> <path d="M390.242,202.892h-84.075V13.455C306.167,6.024,294.346,0,279.761,0h-46.213c-14.583,0-26.408,6.024-26.408,13.455
				v189.437h-84.071c-8.433,0-15.269,5.339-15.269,11.927c0,0,125.952,184.874,137.404,193.819c11.449,8.947,22.899,0,22.899,0
				l137.404-193.819C405.507,208.231,398.672,202.892,390.242,202.892z"/> <path d="M408.651,497.323c0,10.565-7.475,19.128-16.7,19.128H124.727c-9.221,0-16.7-8.563-16.7-19.128v-19.128
				c0-10.565,7.479-19.128,16.7-19.128H391.95c9.225,0,16.7,8.563,16.7,19.128L408.651,497.323L408.651,497.323z"/> </g> </g>                </g>                
    </symbol>
    <symbol id="ecology" viewBox="0 0 512 512">
       <g> <g> <path d="M511.957,53.886l-0.318-11.366l-11.029-2.765c-1.323-0.332-32.865-8.125-74.018-8.449
			c-55.625-0.415-102.324,13.233-135.08,39.535l-6.419,5.156c-24.107,19.357-39.232,46.944-42.589,77.678
			c-3.192,29.206,4.615,57.928,22.011,81.399v56.254c-4.646-4.584-9.433-8.672-14.354-12.265
			c-13.575-48.412-62.935-78.462-112.637-67.51l-6.435,1.418C51.117,230.594,6.612,325.425,4.758,329.453L0,339.781l8.657,7.371
			c2.987,2.543,66.116,55.523,136.005,55.523c9.119,0,18.358-0.903,27.589-2.938l6.436-1.418
			c38.634-8.516,66.665-39.422,73.464-76.074c4.24,5.142,8.362,10.89,12.364,17.235v141.223h30.005V263.32
			c18.978,12.305,41.005,18.621,63.157,18.621c25.433,0,51.03-8.321,72.359-25.448l6.42-5.156h-0.001
			C514.807,188.42,512.11,59.35,511.957,53.886z M172.228,369.019l-6.435,1.418c-51.368,11.319-106.646-23.317-128.269-38.926
			c13.064-23.263,48.663-77.921,100.022-89.241l6.435-1.418c23.707-5.223,47.287,3.159,62.601,19.903
			c-49.541-7.366-94.101,26.29-118.333,44.599l18.089,23.94c21.154-15.984,60.526-45.736,98.55-38.402
			c6.298,1.215,12.442,3.436,18.42,6.641C227.075,330.492,205.321,361.725,172.228,369.019z M417.669,227.942l-6.42,5.156
			c-17.857,14.339-40.231,20.868-62.997,18.379c-20.467-2.236-39.034-11.536-52.998-26.363
			c11.025-64.985,85.241-83.667,125.652-93.834l-7.319-29.099c-22.353,5.624-56.132,14.121-86.153,32.202
			c-24.491,14.751-42,33.275-52.373,55.326c-2.987-10.506-3.953-21.593-2.73-32.778c2.487-22.767,13.691-43.201,31.549-57.542
			l6.419-5.155c33.77-27.117,80.159-32.936,113.73-32.936c0.552,0,1.102,0.002,1.646,0.005c23.595,0.133,44.034,3.031,56.097,5.197
			c-0.488,12.25-2.073,32.83-7.038,55.896C467.646,155.333,451.992,200.379,417.669,227.942z"/> </g> </g>                
    </symbol>
    <symbol id="education" viewBox="0 0 512 512">
       <g> <g> <g> <path d="M360.465,443.988c-4.574-1.161-9.207,1.638-10.342,6.204l-8.533,34.133c-1.152,4.582,1.638,9.207,6.212,10.351
				c0.691,0.179,1.391,0.256,2.074,0.256c3.823,0,7.296-2.586,8.269-6.46l8.533-34.133
				C367.821,449.765,365.039,445.132,360.465,443.988z"/> <path d="M256,273.066c1.109,0,2.219-0.213,3.26-0.648l93.867-38.844c4.352-1.801,6.417-6.793,4.617-11.145
				c-1.801-4.361-6.81-6.409-11.153-4.625L256,255.299L17.067,156.432v-2.833c0-4.71-3.823-8.533-8.533-8.533S0,148.889,0,153.599
				v8.533c0,3.456,2.082,6.571,5.274,7.885l247.467,102.4C253.781,272.852,254.891,273.066,256,273.066z"/> <path d="M357.513,360.49c-2.082-4.224-7.185-5.965-11.426-3.874c-16.205,8.013-43.273,17.331-81.553,18.603v-76.553
				c0-4.71-3.823-8.533-8.533-8.533s-8.533,3.823-8.533,8.533v76.476c-105.958-3.379-140.151-67.567-145.067-78.251v-57.958
				c0-4.71-3.823-8.533-8.533-8.533c-4.71,0-8.533,3.823-8.533,8.533v59.733c0,1.084,0.205,2.159,0.606,3.174
				c1.485,3.695,37.803,90.692,170.061,90.692c46.225,0,78.618-11.213,97.647-20.617
				C357.879,369.825,359.612,364.714,357.513,360.49z"/> <path d="M384,452.266c-4.719,0-8.533,3.823-8.533,8.533v25.6c0,4.71,3.814,8.533,8.533,8.533c4.719,0,8.533-3.823,8.533-8.533
				v-25.6C392.533,456.089,388.719,452.266,384,452.266z"/> <path d="M503.467,145.066c-4.719,0-8.533,3.823-8.533,8.533v2.816l-102.4,42.146v-15.42l114.193-47.258
				c3.191-1.314,5.274-4.429,5.274-7.885c0-3.456-2.082-6.562-5.265-7.885L259.26,17.714c-2.091-0.862-4.429-0.862-6.519,0
				L5.274,120.114C2.082,121.437,0,124.543,0,127.999c0,3.456,2.082,6.571,5.274,7.885l247.467,102.4
				c1.041,0.435,2.15,0.649,3.26,0.649s2.219-0.213,3.26-0.649l89.481-37.026c4.361-1.792,6.426-6.784,4.625-11.145
				c-1.801-4.352-6.793-6.409-11.145-4.617L256,221.166L30.848,127.999L256,34.832l225.152,93.167l-97.971,40.542l-93.841-35.038
				c0.495-1.775,0.794-3.601,0.794-5.504c0-14.353-14.993-25.6-34.133-25.6s-34.133,11.247-34.133,25.6
				c0,14.353,14.993,25.6,34.133,25.6c8.542,0,16.162-2.33,22.084-6.084l97.382,36.361v27.341v0.009v182.878
				c-9.907,3.541-17.067,12.919-17.067,24.03c0,14.114,11.486,25.6,25.6,25.6s25.6-11.486,25.6-25.6
				c0-11.11-7.159-20.488-17.067-24.03v-48.435c24.499-18.492,33.28-43.119,33.664-44.211c0.307-0.896,0.469-1.843,0.469-2.79
				v-59.733c0-4.71-3.814-8.533-8.533-8.533s-8.533,3.823-8.533,8.533v58.155c-1.476,3.618-6.605,14.771-17.067,25.779V217.019
				l114.185-46.993c3.2-1.314,5.282-4.437,5.282-7.893v-8.533C512,148.889,508.186,145.066,503.467,145.066z M256,136.532
				c-10.419,0-17.067-5.052-17.067-8.533c0-3.482,6.647-8.533,17.067-8.533s17.067,5.052,17.067,8.533
				C273.067,131.481,266.419,136.532,256,136.532z M384,426.666c-4.71,0-8.533-3.831-8.533-8.533c0-4.702,3.823-8.533,8.533-8.533
				s8.533,3.831,8.533,8.533C392.533,422.834,388.71,426.666,384,426.666z"/> <path d="M417.877,450.192c-1.143-4.565-5.786-7.356-10.342-6.204c-4.574,1.143-7.356,5.777-6.212,10.351l8.533,34.133
				c0.973,3.874,4.446,6.46,8.269,6.46c0.683,0,1.382-0.077,2.074-0.256c4.574-1.143,7.356-5.769,6.212-10.351L417.877,450.192z"/> </g> </g> </g>                
    </symbol>
    <symbol id="energy" viewBox="0 0 216.934 216.934">
       <path d="M179.508,91.769c-1.147-2.829-3.896-4.681-6.95-4.681h-32.323l26.743-77.131c1.144-3.298-0.14-6.949-3.095-8.807
	c-2.956-1.859-6.802-1.431-9.278,1.03L39.089,116.98c-2.154,2.141-2.805,5.37-1.646,8.179c1.157,2.809,3.896,4.641,6.934,4.641h32
	L47.26,206.781c-1.244,3.286-0.038,6.995,2.899,8.923c1.258,0.826,2.688,1.23,4.113,1.23c1.899,0,3.785-0.72,5.226-2.119
	L177.782,99.969C179.973,97.842,180.656,94.599,179.508,91.769z M73.196,180.61l21.051-55.657c0.871-2.305,0.557-4.89-0.844-6.917
	c-1.4-2.026-3.707-3.236-6.171-3.236H62.563l79.623-79.13l-19.575,56.462c-0.795,2.293-0.432,4.829,0.975,6.806
	c1.407,1.978,3.684,3.151,6.11,3.151h24.37L73.196,180.61z"/>                
    </symbol>
    <symbol id="facebook" viewBox="0 0 430.113 430.114">
       <g> <path id="Facebook" d="M158.081,83.3c0,10.839,0,59.218,0,59.218h-43.385v72.412h43.385v215.183h89.122V214.936h59.805
		c0,0,5.601-34.721,8.316-72.685c-7.784,0-67.784,0-67.784,0s0-42.127,0-49.511c0-7.4,9.717-17.354,19.321-17.354
		c9.586,0,29.818,0,48.557,0c0-9.859,0-43.924,0-75.385c-25.016,0-53.476,0-66.021,0C155.878-0.004,158.081,72.48,158.081,83.3z"/> </g>                
    </symbol>
    <symbol id="google-plus" viewBox="0 0 475.092 475.092">
       <g> <g> <path d="M273.372,302.498c-5.041-6.762-10.608-13.045-16.7-18.842c-6.091-5.804-12.183-11.088-18.271-15.845
			c-6.092-4.757-11.659-9.329-16.702-13.709c-5.042-4.374-9.135-8.945-12.275-13.702c-3.14-4.757-4.711-9.61-4.711-14.558
			c0-6.855,2.19-13.278,6.567-19.274c4.377-5.996,9.707-11.799,15.986-17.417c6.28-5.617,12.559-11.753,18.844-18.415
			c6.276-6.665,11.604-15.465,15.985-26.412c4.373-10.944,6.563-23.458,6.563-37.542c0-16.75-3.713-32.835-11.136-48.25
			c-7.423-15.418-17.89-27.412-31.405-35.976h38.54L303.2,0H178.441c-17.699,0-35.498,1.906-53.384,5.72
			c-26.453,5.9-48.723,19.368-66.806,40.397C40.171,67.15,31.129,90.99,31.129,117.637c0,28.171,10.138,51.583,30.406,70.233
			c20.269,18.649,44.585,27.978,72.945,27.978c5.71,0,12.371-0.478,19.985-1.427c-0.381,1.521-1.043,3.567-1.997,6.136
			s-1.715,4.62-2.286,6.14c-0.57,1.521-1.047,3.375-1.425,5.566c-0.382,2.19-0.571,4.428-0.571,6.71
			c0,12.563,6.086,26.744,18.271,42.541c-14.465,0.387-28.737,1.67-42.825,3.86c-14.084,2.19-28.833,5.616-44.252,10.28
			c-15.417,4.661-29.217,11.42-41.396,20.27c-12.182,8.854-21.317,19.366-27.408,31.549C3.533,361.559,0.01,374.405,0.01,386.017
			c0,12.751,2.857,24.314,8.565,34.69c5.708,10.369,13.035,18.842,21.982,25.406c8.945,6.57,19.273,12.083,30.978,16.562
			c11.704,4.47,23.315,7.659,34.829,9.562c11.516,1.903,22.888,2.854,34.119,2.854c51.007,0,90.981-12.464,119.909-37.397
			c26.648-23.223,39.971-50.062,39.971-80.517c0-10.855-1.57-20.984-4.712-30.409C282.51,317.337,278.42,309.254,273.372,302.498z
			 M163.311,198.722c-9.707,0-18.937-2.475-27.694-7.426c-8.757-4.95-16.18-11.374-22.27-19.273
			c-6.088-7.898-11.418-16.796-15.987-26.695c-4.567-9.896-7.944-19.792-10.135-29.692c-2.19-9.895-3.284-19.318-3.284-28.265
			c0-18.271,4.854-33.974,14.562-47.108c9.705-13.134,23.411-19.701,41.112-19.701c12.563,0,23.935,3.899,34.118,11.704
			c10.183,7.804,18.177,17.701,23.984,29.692c5.802,11.991,10.277,24.407,13.417,37.257c3.14,12.847,4.711,24.983,4.711,36.403
			c0,19.036-4.139,34.317-12.419,45.833C195.144,192.964,181.775,198.722,163.311,198.722z M242.251,413.123
			c-5.23,8.949-12.319,15.94-21.267,20.981c-8.946,5.048-18.509,8.758-28.693,11.14c-10.183,2.385-20.889,3.572-32.12,3.572
			c-12.182,0-24.27-1.431-36.258-4.284c-11.99-2.851-23.459-7.187-34.403-12.991c-10.944-5.8-19.795-13.798-26.551-23.982
			c-6.757-10.184-10.135-21.744-10.135-34.69c0-11.419,2.568-21.601,7.708-30.55c5.142-8.945,11.709-16.084,19.702-21.408
			c7.994-5.332,17.319-9.713,27.979-13.131c10.66-3.433,20.937-5.808,30.833-7.139c9.895-1.335,19.985-1.995,30.262-1.995
			c6.283,0,11.043,0.191,14.277,0.567c1.143,0.767,4.043,2.759,8.708,5.996s7.804,5.428,9.423,6.57
			c1.615,1.137,4.567,3.326,8.85,6.563c4.281,3.237,7.327,5.661,9.135,7.279c1.803,1.618,4.421,4.045,7.849,7.279
			c3.424,3.237,5.948,6.043,7.566,8.422c1.615,2.378,3.616,5.28,5.996,8.702c2.38,3.433,4.043,6.715,4.998,9.855
			c0.948,3.142,1.854,6.567,2.707,10.277c0.855,3.72,1.283,7.569,1.283,11.57C250.105,393.713,247.487,404.182,242.251,413.123z"/> <polygon points="401.998,73.089 401.998,0 365.449,0 365.449,73.089 292.358,73.089 292.358,109.636 365.449,109.636 
			365.449,182.725 401.998,182.725 401.998,109.636 475.081,109.636 475.081,73.089 		"/> </g> </g>                
    </symbol>
    <symbol id="health" viewBox="0 0 512.011 512.011">
       <g> <g> <g> <path d="M415.343,53.646c12.006,4.258,21.7,13.978,25.958,25.984c1.237,3.507,4.531,5.692,8.038,5.692
				c0.947,0,1.911-0.162,2.85-0.495c4.437-1.57,6.767-6.451,5.197-10.889c-6.033-17.067-19.285-30.327-36.335-36.378
				c-4.446-1.562-9.318,0.751-10.897,5.188C408.585,47.195,410.897,52.068,415.343,53.646z"/> <path d="M337.246,289.098c1.28,0.691,2.679,1.041,4.087,1.041c1.408,0,2.816-0.35,4.087-1.041
				c97.118-52.975,149.513-140.126,149.513-195.226c0-51.763-42.103-93.867-93.867-93.867c-36.352,0-69.769,21.291-85.12,54.255
				c-1.997,4.275-0.145,9.353,4.122,11.341c4.275,1.997,9.353,0.137,11.341-4.13c12.57-26.974,39.91-44.399,69.658-44.399
				c42.351,0,76.8,34.449,76.8,76.8c0,50.099-50.97,129.707-136.533,177.971C255.77,223.579,204.8,143.972,204.8,93.872
				c0-42.351,34.458-76.8,76.8-76.8c10.692,0,21.035,2.15,30.754,6.4c4.318,1.886,9.344-0.077,11.238-4.395
				c1.886-4.318-0.085-9.344-4.403-11.238c-11.878-5.197-24.525-7.834-37.589-7.834c-51.755,0-93.867,42.103-93.867,93.867
				C187.733,148.972,240.137,236.123,337.246,289.098z"/> <path d="M110.933,324.272H179.2c9.95,0,26.88,12.698,41.813,23.893c18.722,14.046,36.403,27.307,52.053,27.307h51.2
				c12.954,0,19.396,5.879,19.567,6.033c1.664,1.664,3.849,2.5,6.033,2.5c2.185,0,4.361-0.836,6.033-2.5
				c3.328-3.337,3.328-8.738,0-12.066c-1.135-1.126-11.614-11.034-31.633-11.034h-51.2c-9.958,0-26.88-12.698-41.813-23.893
				c-18.731-14.046-36.412-27.307-52.053-27.307h-68.267c-4.719,0-8.533,3.823-8.533,8.533
				C102.4,320.449,106.214,324.272,110.933,324.272z"/> <path d="M42.667,456.539c0-7.057-5.743-12.8-12.8-12.8s-12.8,5.743-12.8,12.8s5.743,12.8,12.8,12.8
				S42.667,463.596,42.667,456.539z"/> <path d="M507.426,358.406c-4.565-7.893-11.921-13.542-20.727-15.898c-8.815-2.372-18.014-1.161-25.37,3.123l-98.219,47.804
				c-15.258,7.637-30.677,7.637-64.444,7.637c-33.024,0-83.43-8.337-83.934-8.414c-4.651-0.76-9.045,2.372-9.822,7.006
				c-0.768,4.651,2.372,9.045,7.014,9.822c2.125,0.358,52.301,8.653,86.741,8.653c35.43,0,53.214,0,71.996-9.395l98.671-48.051
				c8.132-4.71,18.603-1.911,23.313,6.246c2.278,3.951,2.876,8.55,1.698,12.954s-4.002,8.081-8.192,10.505l-115.371,71.808
				c-0.247,0.154-24.858,15.667-80.649,15.667c-48.375,0-123.11-41.182-124.186-41.771c-0.768-0.384-19.277-9.429-55.014-9.429
				c-4.719,0-8.533,3.823-8.533,8.533c0,4.71,3.814,8.533,8.533,8.533c31.036,0,47.019,7.458,47.053,7.458
				c3.226,1.792,79.343,43.742,132.147,43.742c61.602,0,88.934-17.749,89.839-18.355l114.961-71.552
				c7.893-4.557,13.542-11.921,15.898-20.719C513.195,375.498,511.983,366.299,507.426,358.406z"/> <path d="M59.733,273.072h-51.2c-4.719,0-8.533,3.823-8.533,8.533s3.814,8.533,8.533,8.533h51.2c4.702,0,8.533,3.831,8.533,8.533
				v187.733c0,4.702-3.831,8.533-8.533,8.533h-51.2c-4.719,0-8.533,3.823-8.533,8.533c0,4.71,3.814,8.533,8.533,8.533h51.2
				c14.114,0,25.6-11.486,25.6-25.6V298.672C85.333,284.558,73.847,273.072,59.733,273.072z"/> </g> </g> </g>                
    </symbol>
    <symbol id="hourglass" viewBox="0 0 294.777 294.777">
       <g> <g id="Hourglass_2_"> <g> <path d="M238.089,45.35h22.675V0H34.013v45.35h22.675v34.013l77.73,67.3l-77.73,68.751v34.013H34.013v45.35h226.751v-45.35
				h-22.675v-34.013l-77.73-67.322l77.73-68.728V45.35z M215.414,226.751v22.675H79.363v-22.675l67.436-68.025L215.414,226.751z
				 M215.414,68.025l-67.436,68.025L79.363,68.025V45.35h136.051V68.025z"/> </g> </g> </g>                
    </symbol>
    <symbol id="house-manage" viewBox="0 0 512 512">
       <g> <g> <path d="M495.304,478.609H330.053c-15.488-17.72-23.966-40.161-23.966-63.918v-53.18c18.306,6.488,37.172,7.384,55.6,3.39
			c32.703-7.087,60.255-31.577,71.904-63.913c8.409-23.341,7.889-47.888-0.667-70.019c15.949-19.03,24.357-43.245,23.339-68.142
			c-1.201-29.406-17.857-58.238-44.554-77.126c-19.566-13.844-39.752-20.021-61.348-18.698C336.542,27.37,299.093,0,256,0
			c-43.079,0-80.519,27.353-94.347,66.965c-22.771-1.298-42.827,5.621-61.362,18.735c-26.696,18.888-43.352,47.722-44.553,77.126
			c-1.022,25.02,7.469,49.357,23.571,68.429c-8.948,22.548-9.295,46.431-0.895,69.74c11.652,32.337,39.208,56.825,71.91,63.908
			c19.002,4.116,38.154,2.81,55.589-3.331v53.119c0,23.757-8.478,46.198-23.966,63.918H16.696C7.475,478.608,0,486.083,0,495.303
			S7.475,512,16.696,512c6.998,0,469.25,0,478.609,0c9.22,0,16.696-7.475,16.696-16.696S504.525,478.609,495.304,478.609z
			 M157.391,332.268c-21.227-4.597-39.898-21.316-47.564-42.593c-6.597-18.306-5.216-36.411,4.107-53.812
			c3.584-6.692,2.203-14.959-3.361-20.123c-14.438-13.397-22.265-32.186-21.474-51.551c0.781-19.131,12.174-38.282,30.476-51.231
			c26.08-18.449,43.55-11.767,52.601-10.779c11.583,2.903,22.209,8.891,30.871,17.554c6.519,6.52,17.091,6.521,23.611,0
			c6.52-6.52,6.52-17.091,0-23.611c-9.373-9.373-20.279-16.652-32.149-21.62c10.13-24.486,34.097-41.111,61.49-41.111
			c32.345,0,59.92,23.176,65.568,55.107c1.656,9.36,10.789,15.451,20.065,13.389c18.739-4.168,33.928-0.858,50.789,11.071
			c18.302,12.949,29.696,32.1,30.477,51.231c0.518,12.672-2.676,25.087-8.977,35.916c-1.169-1.294-2.369-2.567-3.611-3.809
			c-6.519-6.519-17.091-6.52-23.611,0c-6.52,6.52-6.52,17.091,0,23.611c3.942,3.942,7.332,8.292,10.128,12.952
			c1.459,4.767,16.484,25.895,5.346,56.81c-7.664,21.277-26.332,37.997-47.559,42.597c-25.25,5.469-47.853-3.037-65.966-20.27
			c-9.307-8.855-21.291-13.252-33.263-13.252c-12.676,0-25.337,4.932-34.776,14.726C204.386,330.3,180.754,337.328,157.391,332.268z
			 M222.677,478.609c10.854-19.302,16.628-41.167,16.628-63.918v-72.904c1.833-1.642,3.621-3.35,5.347-5.141
			c5.662-5.874,15.075-6.078,20.982-0.457c2.304,2.193,4.666,4.25,7.063,6.216v72.287c0,22.751,5.774,44.615,16.628,63.918H222.677z
			"/> </g> </g>                
    </symbol>
    <symbol id="info" viewBox="0 0 330 330">
       <g> <path d="M165,0C74.019,0,0,74.02,0,165.001C0,255.982,74.019,330,165,330s165-74.018,165-164.999C330,74.02,255.981,0,165,0z
		 M165,300c-74.44,0-135-60.56-135-134.999C30,90.562,90.56,30,165,30s135,60.562,135,135.001C300,239.44,239.439,300,165,300z"/> <path d="M164.998,70c-11.026,0-19.996,8.976-19.996,20.009c0,11.023,8.97,19.991,19.996,19.991
		c11.026,0,19.996-8.968,19.996-19.991C184.994,78.976,176.024,70,164.998,70z"/> <path d="M165,140c-8.284,0-15,6.716-15,15v90c0,8.284,6.716,15,15,15c8.284,0,15-6.716,15-15v-90C180,146.716,173.284,140,165,140z
		"/> </g>                
    </symbol>
    <symbol id="it" viewBox="0 0 455.838 455.838">
       <g> <g> <path d="M454.968,160.667c-0.175-0.257-0.374-0.498-0.595-0.719C393.884,99.46,313.461,66.147,227.919,66.147
			c-85.537,0-165.953,33.306-226.439,93.788c-0.94,0.933-1.48,2.21-1.48,3.552c0,1.326,0.526,2.598,1.465,3.536l33.113,33.114
			c0.938,0.938,2.209,1.464,3.535,1.464c1.326,0,2.598-0.527,3.535-1.464c49.836-49.839,115.988-77.285,186.271-77.285
			c70.282,0,136.434,27.447,186.271,77.284c0.938,0.938,2.209,1.464,3.534,1.464c1.326,0,2.599-0.527,3.535-1.464l33.113-33.114
			c0.938-0.938,1.465-2.209,1.465-3.536C455.839,162.481,455.534,161.499,454.968,160.667z"/> <path d="M227.919,153.719c-62.056,0-120.461,24.231-164.458,68.229c-1.952,1.953-1.952,5.119,0.001,7.071l33.01,33.009
			c0.938,0.938,2.209,1.465,3.535,1.465c1.326,0,2.598-0.527,3.535-1.465c33.277-33.277,77.448-51.605,124.377-51.605
			c46.931,0,91.102,18.328,124.376,51.605c0.938,0.938,2.21,1.465,3.536,1.465s2.598-0.527,3.535-1.465l33.011-33.009
			c0.938-0.938,1.465-2.209,1.465-3.536c0-1.327-0.525-2.598-1.465-3.536C348.38,177.951,289.975,153.719,227.919,153.719z"/> <path d="M227.919,241.292c-38.701,0-75.126,15.11-102.564,42.549c-0.939,0.938-1.465,2.209-1.465,3.537
			c0,1.326,0.525,2.598,1.465,3.535l33.01,33.01c0.938,0.938,2.209,1.465,3.535,1.465s2.598-0.527,3.535-1.465
			c16.719-16.719,38.909-25.926,62.484-25.926s45.767,9.209,62.485,25.926c0.938,0.938,2.209,1.465,3.534,1.465
			s2.598-0.527,3.535-1.465l33.01-33.01c1.952-1.953,1.952-5.119,0-7.07C303.046,256.402,266.621,241.292,227.919,241.292z"/> <path d="M227.919,334.083c-13.521,0-26.229,5.264-35.784,14.822c-1.952,1.953-1.952,5.118,0.001,7.07l32.248,32.25
			c0.938,0.938,2.209,1.465,3.535,1.465s2.599-0.527,3.535-1.465l32.248-32.25c1.952-1.953,1.952-5.118,0-7.071
			C254.146,339.347,241.438,334.083,227.919,334.083z"/> </g> </g>                
    </symbol>
    <symbol id="lightning" viewBox="0 0 27.793 27.793">
       <g> <g id="c1_ray"> <polygon points="20.972,0 5.076,15.803 10.972,15.803 6.44,27.793 22.716,11.989 16.819,11.989 		"/> </g>  </g>                
    </symbol>
    <symbol id="list" viewBox="0 0 62.246 62.246">
       <g> <path d="M57.548,45.107H19.965c-2.595,0-4.699,2.105-4.699,4.701c0,2.594,2.104,4.699,4.699,4.699h37.583
		c2.594,0,4.698-2.105,4.698-4.699C62.246,47.213,60.142,45.107,57.548,45.107z"/> <path d="M57.548,26.402H19.965c-2.595,0-4.699,2.104-4.699,4.7c0,2.595,2.104,4.699,4.699,4.699h37.583
		c2.594,0,4.698-2.104,4.698-4.699S60.142,26.402,57.548,26.402z"/> <path d="M19.965,17.096h37.583c2.594,0,4.698-2.104,4.698-4.7s-2.104-4.699-4.698-4.699H19.965c-2.595,0-4.699,2.104-4.699,4.699
		C15.266,14.991,17.37,17.096,19.965,17.096z"/> <circle cx="4.77" cy="12.439" r="4.77"/> <circle cx="4.77" cy="31.102" r="4.769"/> <circle cx="4.77" cy="49.807" r="4.77"/> </g>                
    </symbol>
    <symbol id="map" viewBox="0 0 430.114 430.114">
       <g> <path id="Facebook_Places" d="M356.208,107.051c-1.531-5.738-4.64-11.852-6.94-17.205C321.746,23.704,261.611,0,213.055,0
		C148.054,0,76.463,43.586,66.905,133.427v18.355c0,0.766,0.264,7.647,0.639,11.089c5.358,42.816,39.143,88.32,64.375,131.136
		c27.146,45.873,55.314,90.999,83.221,136.106c17.208-29.436,34.354-59.259,51.17-87.933c4.583-8.415,9.903-16.825,14.491-24.857
		c3.058-5.348,8.9-10.696,11.569-15.672c27.145-49.699,70.838-99.782,70.838-149.104v-20.262
		C363.209,126.938,356.581,108.204,356.208,107.051z M214.245,199.193c-19.107,0-40.021-9.554-50.344-35.939
		c-1.538-4.2-1.414-12.617-1.414-13.388v-11.852c0-33.636,28.56-48.932,53.406-48.932c30.588,0,54.245,24.472,54.245,55.06
		C270.138,174.729,244.833,199.193,214.245,199.193z"/> </g>                
    </symbol>
    <symbol id="media" viewBox="0 0 512.002 512.002">
       <g> <g> <g> <path d="M232.511,243.569l-1.452,1.203c-4.27,3.537-4.865,9.867-1.326,14.137c1.986,2.397,4.85,3.636,7.737,3.636
				c2.257,0,4.526-0.757,6.4-2.309l1.452-1.203c4.27-3.537,4.865-9.866,1.326-14.137
				C243.111,240.624,236.78,240.031,232.511,243.569z"/> <path d="M262.955,231.977c1.986,2.397,4.85,3.636,7.737,3.636c2.257,0,4.527-0.757,6.401-2.309l43.285-35.863
				c4.27-3.537,4.863-9.866,1.325-14.137c-3.538-4.271-9.868-4.863-14.137-1.325l-43.285,35.863
				C260.011,221.377,259.417,227.707,262.955,231.977z"/> <path d="M453.88,165.036c14.637-17.991,22.595-40.276,22.595-63.786c0-27.058-10.537-52.496-29.67-71.629
				C409.827-7.357,351.141-9.712,311.394,22.55l-3.684-3.684c-3.921-3.921-10.278-3.921-14.2,0c-3.921,3.921-3.921,10.278,0,14.2
				l3.615,3.615c-14.995,18.099-22.715,40.232-23.167,62.489L129.915,273.03c-0.022,0.026-0.044,0.053-0.065,0.08
				c-14.746,18.175-15.441,43.334-2.79,62.059l-76.815,76.815c-19.624,19.624-19.624,51.554,0,71.178
				c9.506,9.506,22.146,14.742,35.589,14.742c13.444,0,26.082-5.235,35.588-14.741l19.382-19.382
				c5.713-5.713,13.309-8.859,21.39-8.859s15.677,3.147,21.391,8.86l45.278,45.277c1.961,1.961,4.53,2.941,7.099,2.941
				c2.569,0,5.14-0.981,7.099-2.941c3.921-3.921,3.921-10.278,0-14.199l-45.277-45.277c-9.506-9.506-22.146-14.741-35.589-14.741
				s-26.082,5.235-35.588,14.741l-19.382,19.382c-5.713,5.713-13.309,8.859-21.39,8.859c-8.08,0-15.677-3.147-21.39-8.86
				c-11.795-11.794-11.795-30.985,0-42.779l76.819-76.819c8.765,5.921,18.935,8.926,29.144,8.926c11.6,0,23.246-3.87,32.913-11.713
				c0.027-0.021,0.053-0.043,0.08-0.065l173.85-144.036c22.26-0.451,44.396-8.178,62.498-23.176l3.616,3.616
				c1.961,1.961,4.53,2.941,7.099,2.941c2.569,0,5.14-0.98,7.099-2.941c3.921-3.921,3.921-10.278,0-14.2L453.88,165.036z
				 M190.628,331.015c-12.826,10.375-31.283,9.406-42.952-2.264c-11.67-11.67-12.64-30.126-2.264-42.952L284.63,117.768
				l74.03,74.031L190.628,331.015z M377.627,182.368l-83.567-83.567c0.503-16.98,6.279-33.826,17.345-47.841l114.064,114.065
				C411.453,176.089,394.606,181.865,377.627,182.368z M439.573,150.729L325.707,36.863c14.53-11.18,31.994-16.792,49.471-16.792
				c20.798,0,41.596,7.917,57.43,23.75c15.339,15.339,23.788,35.735,23.788,57.43C456.396,119.386,450.472,136.603,439.573,150.729z
				"/> </g> </g> </g>                
    </symbol>
    <symbol id="megaphone" viewBox="0 0 390.338 390.338">
       <g> <path d="M294.172,21.067c-3.295,0-6.525,2.083-9.599,6.185c-0.335,0.443-34.426,44.622-119.62,70.889
		c-6.232,1.921-13.573,4.385-21.865,5.396c-4.586,0.559-5.669-0.403-6.033-1.066c-2.552-4.637-7.474-7.79-13.131-7.79H39.779
		c-8.271,0-15,6.729-15,15v5.581c0,3.375-2.379,3.523-3.209,3.588c-1.211,0.094-1.895,0.145-1.973,0.151
		C8.791,119.788,0,129.243,0,140.077v56.24c0,10.835,8.791,20.289,19.598,21.074c0.095,0.007,1.077,0.079,2.805,0.215
		c0.68,0.053,2.377,0.656,2.377,3.656v5.452c0,8.271,6.729,15,15,15c0,0,4.886,0,6.515,0c2.875,0,3.436,2.91,3.436,2.91
		l23.283,106.067c2.286,10.418,12.433,18.58,23.1,18.58h26.873c5.454,0,10.392-2.249,13.545-6.17
		c3.154-3.921,4.292-9.226,3.123-14.554l-22.748-103.63c0,0-0.862-3.204,2.388-3.204c1.157,0,4.63,0,4.63,0
		c5.625,0,10.107-3.377,13.088-7.712c1.282-1.865,3.935-1.587,5.375-1.295c8.458,1.716,16.154,3.567,22.563,5.547
		c85.197,26.32,119.284,70.452,119.613,70.888c3.079,4.105,6.311,6.188,9.604,6.188c0,0,0,0,0.001,0
		c2.986,0,5.524-1.685,6.963-4.623c0.95-1.941,1.432-4.486,1.432-7.564V33.253C302.563,21.655,295.573,21.067,294.172,21.067z"/> <path d="M366.481,92.88c-3.136-4.547-9.364-5.691-13.909-2.557c-4.547,3.135-5.692,9.362-2.558,13.909
		c13.296,19.284,20.323,42.543,20.323,67.264c0,24.629-7.35,48.711-20.694,67.811c-3.163,4.527-2.058,10.762,2.47,13.925
		c1.744,1.219,3.741,1.804,5.719,1.804c3.155,0,6.262-1.49,8.206-4.273c15.897-22.752,24.3-50.162,24.3-79.266
		C390.338,142.703,382.088,115.518,366.481,92.88z"/> <path d="M333.616,121.135c-3.136-4.548-9.363-5.692-13.909-2.557c-4.547,3.135-5.692,9.362-2.558,13.909
		c7.721,11.199,11.802,24.728,11.802,39.124c0,14.344-4.268,28.352-12.017,39.442c-3.163,4.527-2.058,10.761,2.47,13.925
		c1.744,1.219,3.741,1.804,5.719,1.804c3.156,0,6.262-1.49,8.206-4.273c10.22-14.626,15.622-32.227,15.622-50.897
		C348.951,153.141,343.648,135.687,333.616,121.135z"/> </g>                
    </symbol>
    <symbol id="menu" viewBox="0 0 56 56">
       <path d="M28,0C12.561,0,0,12.561,0,28s12.561,28,28,28s28-12.561,28-28S43.439,0,28,0z M40,41H16c-1.104,0-2-0.896-2-2s0.896-2,2-2
	h24c1.104,0,2,0.896,2,2S41.104,41,40,41z M40,30H16c-1.104,0-2-0.896-2-2s0.896-2,2-2h24c1.104,0,2,0.896,2,2S41.104,30,40,30z
	 M40,19H16c-1.104,0-2-0.896-2-2s0.896-2,2-2h24c1.104,0,2,0.896,2,2S41.104,19,40,19z"/>                
    </symbol>
    <symbol id="public-order" viewBox="0 0 64 64">
       <g id="Shield_2_"> <path d="M57.8003502,2.7022376l-9.3223-1.4375c-10.9346008-1.6875-22.0214996-1.6855-32.9561005,0l-9.3221998,1.4375
		c-0.4872999,0.0751998-0.8477001,0.4951-0.8477001,0.9882998v7.1571999c0,20.5761986,9.7256002,40.3604012,26.017601,52.9297028
		c0.1786995,0.1444969,0.4013996,0.2226982,0.6308994,0.2226982c0.0527,0,0.107399-0.0038986,0.1611023-0.0126991
		c0.1727982-0.0284004,0.3330002-0.1016006,0.4657974-0.2080002c16.2940025-12.5684013,26.0205002-32.3535995,26.0205002-52.9317017
		V3.6905375C58.6479492,3.1973376,58.2876511,2.7774374,57.8003502,2.7022376z M56.6479492,10.8477373
		c0,19.7109985-9.1991997,38.6729012-24.6473999,50.8838005C16.5512505,49.5196381,7.3520498,30.5587368,7.3520498,10.8477373
		V4.5479374l8.4745998-1.3065999c10.7314997-1.6562999,21.615303-1.6562999,32.3467026,0l8.4745979,1.3065999V10.8477373z"/> <path d="M32.9878502,50.341938c-0.3819008,0.3983994-0.3671989,1.0321999,0.0321999,1.4129982
		c0.1934013,0.1856003,0.4423981,0.277401,0.6903992,0.277401c0.2637024,0,0.5264015-0.1035004,0.722702-0.3096008
		c16.7958984-17.5732002,15.6777-39.8535004,15.6639977-40.0770988c-0.0321999-0.5508003-0.5205002-0.9609995-1.0565987-0.9385004
		c-0.5508003,0.0322008-0.9716988,0.5059004-0.9394989,1.0566006C48.1137505,11.9786377,49.1626511,33.4171371,32.9878502,50.341938
		z"/> </g>                
    </symbol>
    <symbol id="road-manage" viewBox="0 0 680.773 680.772">
       <g> <g id="Shape_19_1_"> <g> <path d="M290.861,277.837c-12.511-29.382-23.319-54.754-16.218-97.093c12.885-76.72,146.292-163.548,292.294-156.122
				l1.231-24.152C407.374-7.549,265.429,88.59,250.636,176.771c-8.272,49.259,4.987,80.38,17.812,110.486
				c9.661,22.691,19.66,46.143,21.278,79.196c2.56,51.94-155.265,135.109-255.34,175.323l9.13,22.401
				c28.125-11.291,274.747-112.901,270.532-198.908C312.212,327.929,300.873,301.313,290.861,277.837z M645.698,447.013
				c-5.036-67.06-40.419-131.655-89.569-164.562c-85.971-57.556-92.758-88.217-74.595-119.036
				c41.808-70.924,149.938-71.962,149.938-71.962V67.288c0,0-122.03,0.954-170.928,83.93
				c-35.999,61.07,19.311,108.807,82.771,151.292c43.196,28.922,74.015,86.345,78.52,146.304
				c3.985,53.111-9.879,133.382-98.579,214.136l16.448,17.824C635.578,593.462,650.093,505.462,645.698,447.013z M300.402,615.283
				l5.676,23.501c0.531-0.133,13.151-3.177,30.758-11.243l-10.192-21.955C311.391,612.578,300.51,615.247,300.402,615.283z
				 M381.228,290.517c9.794,17.245,20.095,35.794,28.645,56.155l22.462-9.299c-9.069-21.604-19.744-40.854-29.913-58.727
				L381.228,290.517z M373.282,169.525l-22.22-9.842c-5.036,11.207-7.487,22.426-7.487,34.309c0,11.727,2.439,23.959,7.45,37.449
				l22.837-8.381c-3.997-10.748-5.941-20.252-5.941-29.068C367.92,185.562,369.671,177.568,373.282,169.525z M377.218,572.207
				l16.594,17.68c17.257-15.965,31.071-34.453,41.083-54.995l-21.906-10.53C404.293,542.186,392.266,558.283,377.218,572.207z
				 M451.222,401.764l-24.032,3.876c1.184,7.27,2.041,14.661,2.548,21.991c0.375,5.64,0.568,11.134,0.568,16.472
				c0,7.656-0.387,15.24-1.159,22.534l24.213,2.524c0.857-8.14,1.292-16.557,1.292-25.059c0-5.857-0.205-11.883-0.628-18.103
				C453.468,417.921,452.526,409.758,451.222,401.764z M421.611,87.54c-9.299,6.231-17.824,12.487-25.36,18.585l15.35,18.743
				c6.979-5.628,14.938-11.46,23.633-17.306L421.611,87.54z"/> </g> </g> </g>                
    </symbol>
    <symbol id="russia" viewBox="0 0 512.001 512.001">
       <path style="fill:#F5F5F5;" d="M512,200.093H0V97.104c0-4.875,3.953-8.828,8.828-8.828h494.345c4.875,0,8.828,3.953,8.828,8.828
	L512,200.093L512,200.093z"/> <path style="fill:#FF4B55;" d="M503.172,423.725H8.828c-4.875,0-8.828-3.953-8.828-8.828V311.909h512v102.988
	C512,419.773,508.047,423.725,503.172,423.725z"/> <rect y="200.091" style="fill:#41479B;" width="512" height="111.81"/>                
    </symbol>
    <symbol id="search" viewBox="0 0 56.966 56.966">
       <path d="M55.146,51.887L41.588,37.786c3.486-4.144,5.396-9.358,5.396-14.786c0-12.682-10.318-23-23-23s-23,10.318-23,23
	s10.318,23,23,23c4.761,0,9.298-1.436,13.177-4.162l13.661,14.208c0.571,0.593,1.339,0.92,2.162,0.92
	c0.779,0,1.518-0.297,2.079-0.837C56.255,54.982,56.293,53.08,55.146,51.887z M23.984,6c9.374,0,17,7.626,17,17s-7.626,17-17,17
	s-17-7.626-17-17S14.61,6,23.984,6z"/>                
    </symbol>
    <symbol id="social-support" viewBox="0 0 512.001 512.001">
       <g> <g> <path d="M424.569,148.582c-7.12-15.664-15.64-30.37-25.328-43.711c-2.577-3.548-7.542-4.332-11.087-1.759
			c-3.548,2.577-4.336,7.539-1.76,11.087c9.062,12.48,17.044,26.259,23.722,40.953c1.33,2.926,4.213,4.654,7.231,4.654
			c1.097,0,2.214-0.23,3.28-0.713C424.618,157.279,426.383,152.573,424.569,148.582z"/> </g> </g> <g> <g> <path d="M441.222,196.502c-2.216-8.86-4.862-17.648-7.865-26.122c-1.466-4.129-6-6.29-10.133-4.829
			c-4.133,1.464-6.295,6.002-4.83,10.133c2.835,7.999,5.334,16.298,7.429,24.671c0.902,3.606,4.137,6.013,7.694,6.013
			c0.637,0,1.286-0.077,1.932-0.24C439.701,205.065,442.287,200.755,441.222,196.502z"/> </g> </g> <g> <g> <path d="M429.237,97.156C384.84,52.759,326.402,27.516,263.938,25.54V7.937c0-4.384-3.553-7.937-7.937-7.937
			c-4.383,0-7.937,3.553-7.937,7.937V25.54C185.599,27.516,127.16,52.759,82.764,97.156
			C36.49,143.429,11.007,204.952,11.007,270.393c0,4.385,3.554,7.937,7.937,7.937h1.975c3.511,0,6.606-2.307,7.607-5.672
			c4.941-16.599,20.498-28.193,37.83-28.193c17.332,0,32.888,11.594,37.831,28.193c1.002,3.366,4.096,5.672,7.607,5.672h3.948
			c0.073,0,0.143-0.016,0.216-0.018c0.116,0.005,0.232,0.018,0.349,0.018h1.164c4.383,0,7.937-3.553,7.937-7.937
			c0-0.819-0.13-1.606-0.361-2.35c6.251-14.229,20.376-23.578,36.131-23.578c15.775,0,29.776,9.213,36.093,23.57
			c-0.002,0.785-0.005,1.569-0.005,2.358c0,4.385,3.554,7.937,7.937,7.937h0.423c0.206,0,0.409-0.015,0.611-0.031
			c0.127,0.006,0.25,0.031,0.378,0.031h3.95c3.511,0,6.605-2.307,7.607-5.672c4.173-14.013,15.909-24.458,29.892-27.373v211.79
			v3.811c0,0.819,0.125,1.61,0.355,2.353c3.074,27.395,26.368,48.763,54.571,48.763c30.285,0,54.924-24.639,54.924-54.925
			c0-4.385-3.553-7.937-7.937-7.937c-4.385,0-7.937,3.553-7.937,7.937c0,21.533-17.518,39.051-39.05,39.051
			c-21.532,0-39.051-17.519-39.051-39.051V245.284c13.983,2.915,25.721,13.36,29.892,27.373c1.002,3.366,4.097,5.672,7.608,5.672
			h3.948c0.192,0,0.377-0.033,0.566-0.047c0.278,0.03,0.56,0.047,0.846,0.047c4.385,0,7.937-3.553,7.937-7.937
			c0-0.788-0.003-1.573-0.006-2.357c6.317-14.357,20.318-23.57,36.094-23.57c16.468,0,31.154,10.217,36.931,25.544l0.003,0.384
			c0,4.385,3.553,7.937,7.937,7.937c0.119,0,0.233-0.013,0.349-0.018c0.073,0.002,0.143,0.018,0.216,0.018h3.948
			c3.511,0,6.605-2.307,7.608-5.672c4.942-16.598,20.498-28.193,37.83-28.193c17.332,0,32.887,11.594,37.83,28.193
			c1.002,3.366,4.097,5.672,7.608,5.672h1.974c4.385,0,7.937-3.553,7.937-7.937C500.994,204.952,475.511,143.429,429.237,97.156z
			 M108.952,248.69c-10.328-12.393-25.871-20.1-42.597-20.1c-14.367,0-27.866,5.683-37.932,15.142
			C39.069,152.244,103.832,77.048,189.757,51.05c-14.312,11.857-27.479,27.654-39.005,47.077
			C126.515,138.971,111.923,191.838,108.952,248.69z M197.623,242.23c-9.855-8.632-22.672-13.639-36.445-13.639
			c-13.476,0-26.1,4.884-35.889,13.218c7.099-98.212,50.254-177.446,105.454-196.268c-6.905,12.403-12.966,30.494-18.132,54.229
			C204.192,138.458,198.976,188.348,197.623,242.23z M256.001,228.59c-16.754,0-32.32,7.731-42.647,20.159
			c1.073-55.236,6.237-106.405,14.768-145.605c10.652-48.941,22.893-61.872,27.878-61.872s17.227,12.931,27.878,61.872
			c8.531,39.201,13.694,90.368,14.767,145.605C288.32,236.321,272.754,228.59,256.001,228.59z M350.823,228.59
			c-13.775,0-26.592,5.007-36.445,13.64c-1.352-53.882-6.569-103.773-14.989-142.461c-5.166-23.735-11.226-41.826-18.132-54.229
			c55.199,18.823,98.354,98.056,105.454,196.268C376.923,233.474,364.301,228.59,350.823,228.59z M445.646,228.59
			c-16.726,0-32.27,7.708-42.597,20.1c-2.971-56.852-17.563-109.72-41.8-150.565c-11.526-19.424-24.693-35.22-39.005-47.078
			c85.925,25.998,150.689,101.195,161.335,192.682C473.512,234.273,460.013,228.59,445.646,228.59z"/> </g> </g>                
    </symbol>
    <symbol id="sport" viewBox="0 0 270 270">
       <path color-rendering="auto" image-rendering="auto" shape-rendering="auto" color-interpolation="sRGB" d="M135,0
	C60.501,0,0,60.501,0,135s60.501,135,135,135s135-60.501,135-135S209.499,0,135,0L135,0z M135,10c8.238,0,16.286,0.803,24.076,2.32
	C107.503,26.087,68.229,56.884,36.088,91.793c-4.713-3.12-9.391-6.586-14.025-10.469C42.127,39.132,85.125,10,135,10z
	 M179.309,18.074c11.844,4.484,22.828,10.709,32.635,18.373c-44.553,12-88.155,40.126-125.668,78.328
	c-14.074-4.542-27.939-9.86-41.512-17.635C79.53,59.724,121.894,28.213,179.309,18.074z M221.209,44.443
	c7.075,6.737,13.356,14.297,18.699,22.525c-43.361,12.714-78.066,34.361-106.256,62.311c-12.308-4.139-24.523-7.533-36.598-11.154
	C134.659,80.914,178.054,54.399,221.209,44.443z M245.17,75.854C254.631,93.458,260,113.594,260,135
	c0,30.896-11.183,59.151-29.721,80.953c12.562-49.222,0.949-88.962-7.951-132.492C229.647,80.638,237.251,78.093,245.17,75.854z
	 M212.908,87.313c10.01,48.491,22.157,89.067,2.275,143.617c-10.24,8.566-21.871,15.524-34.514,20.481
	c12.195-44.117,11.962-94.034-2.211-145.607C189.147,98.849,200.596,92.657,212.908,87.313L212.908,87.313z M17.992,90.914
	c36.704,29.647,75.513,35.486,112.174,47.746c0.65,13.172,1.236,26.259,1.236,39.168c-51.494-13.46-89.242-31.515-119.582-64.185
	C13.17,105.79,15.253,98.191,17.992,90.914L17.992,90.914z M169.711,111.783c13.533,51.416,12.673,100.668-0.613,143.52
	C158.261,258.363,146.823,260,135,260c-2.315,0-4.614-0.067-6.898-0.191c15.932-39.504,14.054-81.547,11.998-122.838
	C149.25,127.836,159.086,119.412,169.711,111.783L169.711,111.783z M10.299,126.439c31.42,31.094,70.444,48.706,120.957,61.68
	c-0.38,13.943-1.605,27.66-4.379,41.039c-33.631-6.738-75.696-17.996-112.801-62.365C11.42,156.643,10,145.989,10,135
	C10,132.122,10.108,129.269,10.299,126.439L10.299,126.439z M23.131,190.857c34.621,32.155,72.084,42.112,101.432,48.033
	c-1.817,6.736-4.073,13.381-6.863,19.916C76.154,253.067,41.169,226.955,23.131,190.857L23.131,190.857z"/>                
    </symbol>
    <symbol id="transport" viewBox="0 0 416 416">
       <g> <g> <g> <path d="M328,0H88C66,0,48,18,48,40v288c0,12.4,6.8,22.8,16.4,30c0,0.4-0.4,1.2-0.4,2v28c0,15.6,12.4,28,28,28h8
				c15.6,0,28-12.4,28-28v-20h160v20c0,15.6,12.4,28,28,28h8c15.6,0,28-12.4,28-28v-28c9.6-7.2,16-18.8,16-32V40C368,18,350,0,328,0
				z M112,388c0,6.8-5.2,12-12,12h-8c-6.8,0-12-5.2-12-12v-22c4,1.2,8,2,12,2h20V388z M336,388c0,6.8-5.2,12-12,12h-8
				c-6.8,0-12-5.2-12-12v-20h24c2.8,0,5.6-0.4,8-0.8V388z M352,328c0,13.2-10.8,24-24,24H92c-12.8,0-28-10.8-28-24v-72h288V328z
				 M352,240H64V80h288V240z M352,64H64V40c0-13.2,10.8-24,24-24h240c13.2,0,24,10.8,24,24V64z"/> <path d="M192,32h-52c-4.4,0-8,3.6-8,8s3.6,8,8,8h52c4.4,0,8-3.6,8-8S196.4,32,192,32z"/> <path d="M240,32h-12c-4.4,0-8,3.6-8,8s3.6,8,8,8h12c4.4,0,8-3.6,8-8S244.4,32,240,32z"/> <path d="M108,324c13.2,0,24-10.8,24-24s-10.8-24-24-24s-24,10.8-24,24S94.8,324,108,324z M108,292c4.4,0,8,3.6,8,8
				c0,4.4-3.6,8-8,8c-4.4,0-8-3.6-8-8C100,295.6,103.6,292,108,292z"/> <path d="M308,324c13.2,0,24-10.8,24-24s-10.8-24-24-24s-24,10.8-24,24S294.8,324,308,324z M308,292c4.4,0,8,3.6,8,8
				c0,4.4-3.6,8-8,8c-4.4,0-8-3.6-8-8C300,295.6,303.6,292,308,292z"/> </g> </g> </g>                
    </symbol>
    <symbol id="twitter" viewBox="0 0 612 612">
       <g> <g> <path d="M612,116.258c-22.525,9.981-46.694,16.75-72.088,19.772c25.929-15.527,45.777-40.155,55.184-69.411
			c-24.322,14.379-51.169,24.82-79.775,30.48c-22.907-24.437-55.49-39.658-91.63-39.658c-69.334,0-125.551,56.217-125.551,125.513
			c0,9.828,1.109,19.427,3.251,28.606C197.065,206.32,104.556,156.337,42.641,80.386c-10.823,18.51-16.98,40.078-16.98,63.101
			c0,43.559,22.181,81.993,55.835,104.479c-20.575-0.688-39.926-6.348-56.867-15.756v1.568c0,60.806,43.291,111.554,100.693,123.104
			c-10.517,2.83-21.607,4.398-33.08,4.398c-8.107,0-15.947-0.803-23.634-2.333c15.985,49.907,62.336,86.199,117.253,87.194
			c-42.947,33.654-97.099,53.655-155.916,53.655c-10.134,0-20.116-0.612-29.944-1.721c55.567,35.681,121.536,56.485,192.438,56.485
			c230.948,0,357.188-191.291,357.188-357.188l-0.421-16.253C573.872,163.526,595.211,141.422,612,116.258z"/> </g> </g>                
    </symbol>
    <symbol id="ukraine" viewBox="0 0 512.001 512.001">
       <path style="fill:#FFE15A;" d="M0,256h512v158.897c0,4.875-3.953,8.828-8.828,8.828H8.828c-4.875,0-8.828-3.953-8.828-8.828V256z"/> <path style="fill:#4173CD;" d="M512,256H0V97.103c0-4.875,3.953-8.828,8.828-8.828h494.345c4.875,0,8.828,3.953,8.828,8.828L512,256
	L512,256z"/>                
    </symbol>
    <symbol id="united-states" viewBox="0 0 512.001 512.001">
       <path style="fill:#F5F5F5;" d="M503.172,423.725H8.828c-4.875,0-8.828-3.953-8.828-8.828V97.104c0-4.875,3.953-8.828,8.828-8.828
	h494.345c4.875,0,8.828,3.953,8.828,8.828v317.793C512,419.773,508.047,423.725,503.172,423.725z"/> <g> <path style="fill:#FF4B55;" d="M512,114.081H0V97.104c0-4.875,3.953-8.828,8.828-8.828h494.345c4.875,0,8.828,3.953,8.828,8.828
		L512,114.081L512,114.081z"/> <rect y="191.491" style="fill:#FF4B55;" width="512" height="25.804"/> <rect y="139.881" style="fill:#FF4B55;" width="512" height="25.804"/> <path style="fill:#FF4B55;" d="M512,268.903H8.828c-4.875,0-8.828-3.953-8.828-8.828v-16.977h512V268.903z"/> <rect y="346.321" style="fill:#FF4B55;" width="512" height="25.804"/> <path style="fill:#FF4B55;" d="M503.172,423.725H8.828c-4.875,0-8.828-3.953-8.828-8.828v-16.976h512v16.977
		C512,419.773,508.047,423.725,503.172,423.725z"/> <rect y="294.711" style="fill:#FF4B55;" width="512" height="25.804"/> </g> <path style="fill:#41479B;" d="M229.517,88.277H8.828C3.953,88.277,0,92.229,0,97.104v162.97c0,4.875,3.953,8.828,8.828,8.828
	h220.69c4.875,0,8.828-3.953,8.828-8.828V97.104C238.345,92.229,234.392,88.277,229.517,88.277z"/> <g> <path style="fill:#F5F5F5;" d="M24.789,108.538l1.954,5.86l6.177,0.047c0.8,0.007,1.131,1.027,0.488,1.502l-4.969,3.67l1.864,5.889
		c0.242,0.762-0.627,1.394-1.278,0.928L24,122.843l-5.025,3.592c-0.651,0.465-1.518-0.166-1.278-0.928l1.864-5.889l-4.969-3.67
		c-0.643-0.476-0.312-1.495,0.488-1.502l6.177-0.047l1.954-5.86C23.463,107.779,24.535,107.779,24.789,108.538z"/> <path style="fill:#F5F5F5;" d="M24.789,139.192l1.954,5.86l6.177,0.047c0.8,0.007,1.131,1.027,0.488,1.502l-4.969,3.67l1.864,5.889
		c0.242,0.762-0.627,1.394-1.278,0.928L24,153.497l-5.025,3.592c-0.651,0.465-1.518-0.166-1.278-0.928l1.864-5.889l-4.969-3.67
		c-0.643-0.476-0.312-1.495,0.488-1.502l6.177-0.047l1.954-5.86C23.463,138.434,24.535,138.434,24.789,139.192z"/> <path style="fill:#F5F5F5;" d="M24.789,169.846l1.954,5.86l6.177,0.047c0.8,0.007,1.131,1.027,0.488,1.502l-4.969,3.67l1.864,5.889
		c0.242,0.762-0.627,1.394-1.278,0.928L24,184.151l-5.025,3.592c-0.651,0.465-1.518-0.166-1.278-0.928l1.864-5.889l-4.969-3.67
		c-0.643-0.476-0.312-1.495,0.488-1.502l6.177-0.047l1.954-5.86C23.463,169.088,24.535,169.088,24.789,169.846z"/> <path style="fill:#F5F5F5;" d="M24.789,200.501l1.954,5.86l6.177,0.047c0.8,0.007,1.131,1.027,0.488,1.502l-4.969,3.67l1.864,5.889
		c0.242,0.762-0.627,1.394-1.278,0.928L24,214.806l-5.025,3.592c-0.651,0.465-1.518-0.166-1.278-0.928l1.864-5.889l-4.969-3.67
		c-0.643-0.476-0.312-1.495,0.488-1.502l6.177-0.047l1.954-5.86C23.463,199.742,24.535,199.742,24.789,200.501z"/> <path style="fill:#F5F5F5;" d="M24.789,231.155l1.954,5.86l6.177,0.047c0.8,0.007,1.131,1.027,0.488,1.502l-4.969,3.67l1.864,5.889
		c0.242,0.762-0.627,1.394-1.278,0.928L24,245.46l-5.025,3.592c-0.651,0.465-1.518-0.166-1.278-0.928l1.864-5.889l-4.969-3.67
		c-0.643-0.476-0.312-1.495,0.488-1.502l6.177-0.047l1.954-5.86C23.463,230.395,24.535,230.395,24.789,231.155z"/> <path style="fill:#F5F5F5;" d="M48.582,123.567l1.954,5.86l6.177,0.047c0.8,0.007,1.131,1.027,0.488,1.502l-4.969,3.67l1.864,5.889
		c0.242,0.762-0.627,1.394-1.278,0.928l-5.025-3.592l-5.025,3.592c-0.651,0.465-1.518-0.166-1.278-0.928l1.864-5.889l-4.969-3.67
		c-0.643-0.476-0.312-1.495,0.488-1.502l6.177-0.047l1.954-5.86C47.255,122.809,48.329,122.809,48.582,123.567z"/> <path style="fill:#F5F5F5;" d="M48.582,154.222l1.954,5.86l6.177,0.047c0.8,0.007,1.131,1.027,0.488,1.502l-4.969,3.67l1.864,5.889
		c0.242,0.762-0.627,1.394-1.278,0.928l-5.025-3.592l-5.025,3.592c-0.651,0.465-1.518-0.165-1.278-0.928l1.864-5.889l-4.969-3.67
		c-0.643-0.476-0.312-1.495,0.488-1.502l6.177-0.047l1.954-5.86C47.255,153.463,48.329,153.463,48.582,154.222z"/> <path style="fill:#F5F5F5;" d="M48.582,184.876l1.954,5.86l6.177,0.047c0.8,0.007,1.131,1.027,0.488,1.502l-4.969,3.67l1.864,5.889
		c0.242,0.762-0.627,1.394-1.278,0.928l-5.025-3.592l-5.025,3.592c-0.651,0.465-1.518-0.166-1.278-0.928l1.864-5.889l-4.969-3.67
		c-0.643-0.476-0.312-1.495,0.488-1.502l6.177-0.047l1.954-5.86C47.255,184.117,48.329,184.117,48.582,184.876z"/> <path style="fill:#F5F5F5;" d="M48.582,215.53l1.954,5.86l6.177,0.047c0.8,0.007,1.131,1.027,0.488,1.502l-4.969,3.67l1.864,5.889
		c0.242,0.762-0.627,1.394-1.278,0.928l-5.025-3.592l-5.025,3.592c-0.651,0.465-1.518-0.166-1.278-0.928l1.864-5.889l-4.969-3.67
		c-0.643-0.476-0.312-1.495,0.488-1.502l6.177-0.047l1.954-5.86C47.255,214.772,48.329,214.772,48.582,215.53z"/> <path style="fill:#F5F5F5;" d="M72.375,108.538l1.954,5.86l6.177,0.047c0.8,0.007,1.131,1.027,0.488,1.502l-4.969,3.67l1.864,5.889
		c0.242,0.762-0.627,1.394-1.278,0.928l-5.025-3.592l-5.025,3.592c-0.651,0.465-1.518-0.166-1.278-0.928l1.864-5.889l-4.969-3.67
		c-0.643-0.476-0.312-1.495,0.488-1.502l6.177-0.047l1.954-5.86C71.049,107.779,72.122,107.779,72.375,108.538z"/> <path style="fill:#F5F5F5;" d="M72.375,139.192l1.954,5.86l6.177,0.047c0.8,0.007,1.131,1.027,0.488,1.502l-4.969,3.67l1.864,5.889
		c0.242,0.762-0.627,1.394-1.278,0.928l-5.025-3.592l-5.025,3.592c-0.651,0.465-1.518-0.166-1.278-0.928l1.864-5.889l-4.969-3.67
		c-0.643-0.476-0.312-1.495,0.488-1.502l6.177-0.047l1.954-5.86C71.049,138.434,72.122,138.434,72.375,139.192z"/> <path style="fill:#F5F5F5;" d="M72.375,169.846l1.954,5.86l6.177,0.047c0.8,0.007,1.131,1.027,0.488,1.502l-4.969,3.67l1.864,5.889
		c0.242,0.762-0.627,1.394-1.278,0.928l-5.025-3.592l-5.025,3.592c-0.651,0.465-1.518-0.166-1.278-0.928l1.864-5.889l-4.969-3.67
		c-0.643-0.476-0.312-1.495,0.488-1.502l6.177-0.047l1.954-5.86C71.049,169.088,72.122,169.088,72.375,169.846z"/> <path style="fill:#F5F5F5;" d="M72.375,200.501l1.954,5.86l6.177,0.047c0.8,0.007,1.131,1.027,0.488,1.502l-4.969,3.67l1.864,5.889
		c0.242,0.762-0.627,1.394-1.278,0.928l-5.025-3.592l-5.025,3.592c-0.651,0.465-1.518-0.166-1.278-0.928l1.864-5.889l-4.969-3.67
		c-0.643-0.476-0.312-1.495,0.488-1.502l6.177-0.047l1.954-5.86C71.049,199.742,72.122,199.742,72.375,200.501z"/> <path style="fill:#F5F5F5;" d="M72.375,231.155l1.954,5.86l6.177,0.047c0.8,0.007,1.131,1.027,0.488,1.502l-4.969,3.67l1.864,5.889
		c0.242,0.762-0.627,1.394-1.278,0.928l-5.025-3.592l-5.025,3.592c-0.651,0.465-1.518-0.166-1.278-0.928l1.864-5.889l-4.969-3.67
		c-0.643-0.476-0.312-1.495,0.488-1.502l6.177-0.047l1.954-5.86C71.049,230.395,72.122,230.395,72.375,231.155z"/> <path style="fill:#F5F5F5;" d="M96.169,123.567l1.954,5.86l6.177,0.047c0.8,0.007,1.131,1.027,0.488,1.502l-4.969,3.67l1.864,5.889
		c0.242,0.762-0.627,1.394-1.278,0.928l-5.025-3.592l-5.025,3.592c-0.651,0.465-1.518-0.166-1.278-0.928l1.864-5.889l-4.969-3.67
		c-0.643-0.476-0.312-1.495,0.488-1.502l6.177-0.047l1.954-5.86C94.842,122.809,95.916,122.809,96.169,123.567z"/> <path style="fill:#F5F5F5;" d="M96.169,154.222l1.954,5.86l6.177,0.047c0.8,0.007,1.131,1.027,0.488,1.502l-4.969,3.67l1.864,5.889
		c0.242,0.762-0.627,1.394-1.278,0.928l-5.025-3.592l-5.025,3.592c-0.651,0.465-1.518-0.165-1.278-0.928l1.864-5.889l-4.969-3.67
		c-0.643-0.476-0.312-1.495,0.488-1.502l6.177-0.047l1.954-5.86C94.842,153.463,95.916,153.463,96.169,154.222z"/> <path style="fill:#F5F5F5;" d="M96.169,184.876l1.954,5.86l6.177,0.047c0.8,0.007,1.131,1.027,0.488,1.502l-4.969,3.67l1.864,5.889
		c0.242,0.762-0.627,1.394-1.278,0.928l-5.025-3.592l-5.025,3.592c-0.651,0.465-1.518-0.166-1.278-0.928l1.864-5.889l-4.969-3.67
		c-0.643-0.476-0.312-1.495,0.488-1.502l6.177-0.047l1.954-5.86C94.842,184.117,95.916,184.117,96.169,184.876z"/> <path style="fill:#F5F5F5;" d="M96.169,215.53l1.954,5.86l6.177,0.047c0.8,0.007,1.131,1.027,0.488,1.502l-4.969,3.67l1.864,5.889
		c0.242,0.762-0.627,1.394-1.278,0.928l-5.025-3.592l-5.025,3.592c-0.651,0.465-1.518-0.166-1.278-0.928l1.864-5.889l-4.969-3.67
		c-0.643-0.476-0.312-1.495,0.488-1.502l6.177-0.047l1.954-5.86C94.842,214.772,95.916,214.772,96.169,215.53z"/> <path style="fill:#F5F5F5;" d="M119.962,108.538l1.954,5.86l6.177,0.047c0.8,0.007,1.131,1.027,0.488,1.502l-4.969,3.67
		l1.864,5.889c0.242,0.762-0.627,1.394-1.278,0.928l-5.026-3.592l-5.025,3.592c-0.651,0.465-1.518-0.166-1.278-0.928l1.864-5.889
		l-4.969-3.67c-0.643-0.476-0.312-1.495,0.488-1.502l6.177-0.047l1.954-5.86C118.636,107.779,119.709,107.779,119.962,108.538z"/> <path style="fill:#F5F5F5;" d="M119.962,139.192l1.954,5.86l6.177,0.047c0.8,0.007,1.131,1.027,0.488,1.502l-4.969,3.67
		l1.864,5.889c0.242,0.762-0.627,1.394-1.278,0.928l-5.026-3.592l-5.025,3.592c-0.651,0.465-1.518-0.166-1.278-0.928l1.864-5.889
		l-4.969-3.67c-0.643-0.476-0.312-1.495,0.488-1.502l6.177-0.047l1.954-5.86C118.636,138.434,119.709,138.434,119.962,139.192z"/> <path style="fill:#F5F5F5;" d="M119.962,169.846l1.954,5.86l6.177,0.047c0.8,0.007,1.131,1.027,0.488,1.502l-4.969,3.67
		l1.864,5.889c0.242,0.762-0.627,1.394-1.278,0.928l-5.026-3.592l-5.025,3.592c-0.651,0.465-1.518-0.166-1.278-0.928l1.864-5.889
		l-4.969-3.67c-0.643-0.476-0.312-1.495,0.488-1.502l6.177-0.047l1.954-5.86C118.636,169.088,119.709,169.088,119.962,169.846z"/> <path style="fill:#F5F5F5;" d="M119.962,200.501l1.954,5.86l6.177,0.047c0.8,0.007,1.131,1.027,0.488,1.502l-4.969,3.67
		l1.864,5.889c0.242,0.762-0.627,1.394-1.278,0.928l-5.026-3.592l-5.025,3.592c-0.651,0.465-1.518-0.166-1.278-0.928l1.864-5.889
		l-4.969-3.67c-0.643-0.476-0.312-1.495,0.488-1.502l6.177-0.047l1.954-5.86C118.636,199.742,119.709,199.742,119.962,200.501z"/> <path style="fill:#F5F5F5;" d="M119.962,231.155l1.954,5.86l6.177,0.047c0.8,0.007,1.131,1.027,0.488,1.502l-4.969,3.67
		l1.864,5.889c0.242,0.762-0.627,1.394-1.278,0.928l-5.026-3.592l-5.025,3.592c-0.651,0.465-1.518-0.166-1.278-0.928l1.864-5.889
		l-4.969-3.67c-0.643-0.476-0.312-1.495,0.488-1.502l6.177-0.047l1.954-5.86C118.636,230.395,119.709,230.395,119.962,231.155z"/> <path style="fill:#F5F5F5;" d="M143.755,123.567l1.954,5.86l6.177,0.047c0.8,0.007,1.131,1.027,0.488,1.502l-4.969,3.67
		l1.864,5.889c0.242,0.762-0.627,1.394-1.278,0.928l-5.025-3.592l-5.025,3.592c-0.651,0.465-1.518-0.166-1.278-0.928l1.864-5.889
		l-4.969-3.67c-0.643-0.476-0.312-1.495,0.488-1.502l6.177-0.047l1.954-5.86C142.43,122.809,143.502,122.809,143.755,123.567z"/> <path style="fill:#F5F5F5;" d="M143.755,154.222l1.954,5.86l6.177,0.047c0.8,0.007,1.131,1.027,0.488,1.502l-4.969,3.67
		l1.864,5.889c0.242,0.762-0.627,1.394-1.278,0.928l-5.025-3.592l-5.025,3.592c-0.651,0.465-1.518-0.165-1.278-0.928l1.864-5.889
		l-4.969-3.67c-0.643-0.476-0.312-1.495,0.488-1.502l6.177-0.047l1.954-5.86C142.43,153.463,143.502,153.463,143.755,154.222z"/> <path style="fill:#F5F5F5;" d="M143.755,184.876l1.954,5.86l6.177,0.047c0.8,0.007,1.131,1.027,0.488,1.502l-4.969,3.67
		l1.864,5.889c0.242,0.762-0.627,1.394-1.278,0.928l-5.025-3.592l-5.025,3.592c-0.651,0.465-1.518-0.166-1.278-0.928l1.864-5.889
		l-4.969-3.67c-0.643-0.476-0.312-1.495,0.488-1.502l6.177-0.047l1.954-5.86C142.43,184.117,143.502,184.117,143.755,184.876z"/> <path style="fill:#F5F5F5;" d="M143.755,215.53l1.954,5.86l6.177,0.047c0.8,0.007,1.131,1.027,0.488,1.502l-4.969,3.67l1.864,5.889
		c0.242,0.762-0.627,1.394-1.278,0.928l-5.025-3.592l-5.025,3.592c-0.651,0.465-1.518-0.166-1.278-0.928l1.864-5.889l-4.969-3.67
		c-0.643-0.476-0.312-1.495,0.488-1.502l6.177-0.047l1.954-5.86C142.43,214.772,143.502,214.772,143.755,215.53z"/> <path style="fill:#F5F5F5;" d="M167.549,108.538l1.954,5.86l6.177,0.047c0.8,0.007,1.131,1.027,0.488,1.502l-4.969,3.67
		l1.864,5.889c0.242,0.762-0.627,1.394-1.278,0.928l-5.025-3.592l-5.025,3.592c-0.651,0.465-1.518-0.166-1.278-0.928l1.864-5.889
		l-4.969-3.67c-0.643-0.476-0.312-1.495,0.488-1.502l6.177-0.047l1.954-5.86C166.222,107.779,167.296,107.779,167.549,108.538z"/> <path style="fill:#F5F5F5;" d="M167.549,139.192l1.954,5.86l6.177,0.047c0.8,0.007,1.131,1.027,0.488,1.502l-4.969,3.67
		l1.864,5.889c0.242,0.762-0.627,1.394-1.278,0.928l-5.025-3.592l-5.025,3.592c-0.651,0.465-1.518-0.166-1.278-0.928l1.864-5.889
		l-4.969-3.67c-0.643-0.476-0.312-1.495,0.488-1.502l6.177-0.047l1.954-5.86C166.222,138.434,167.296,138.434,167.549,139.192z"/> <path style="fill:#F5F5F5;" d="M167.549,169.846l1.954,5.86l6.177,0.047c0.8,0.007,1.131,1.027,0.488,1.502l-4.969,3.67
		l1.864,5.889c0.242,0.762-0.627,1.394-1.278,0.928l-5.025-3.592l-5.025,3.592c-0.651,0.465-1.518-0.166-1.278-0.928l1.864-5.889
		l-4.969-3.67c-0.643-0.476-0.312-1.495,0.488-1.502l6.177-0.047l1.954-5.86C166.222,169.088,167.296,169.088,167.549,169.846z"/> <path style="fill:#F5F5F5;" d="M167.549,200.501l1.954,5.86l6.177,0.047c0.8,0.007,1.131,1.027,0.488,1.502l-4.969,3.67
		l1.864,5.889c0.242,0.762-0.627,1.394-1.278,0.928l-5.025-3.592l-5.025,3.592c-0.651,0.465-1.518-0.166-1.278-0.928l1.864-5.889
		l-4.969-3.67c-0.643-0.476-0.312-1.495,0.488-1.502l6.177-0.047l1.954-5.86C166.222,199.742,167.296,199.742,167.549,200.501z"/> <path style="fill:#F5F5F5;" d="M167.549,231.155l1.954,5.86l6.177,0.047c0.8,0.007,1.131,1.027,0.488,1.502l-4.969,3.67
		l1.864,5.889c0.242,0.762-0.627,1.394-1.278,0.928l-5.025-3.592l-5.025,3.592c-0.651,0.465-1.518-0.166-1.278-0.928l1.864-5.889
		l-4.969-3.67c-0.643-0.476-0.312-1.495,0.488-1.502l6.177-0.047l1.954-5.86C166.222,230.395,167.296,230.395,167.549,231.155z"/> <path style="fill:#F5F5F5;" d="M191.342,123.567l1.954,5.86l6.177,0.047c0.8,0.007,1.131,1.027,0.488,1.502l-4.969,3.67
		l1.864,5.889c0.242,0.762-0.627,1.394-1.278,0.928l-5.025-3.592l-5.025,3.592c-0.651,0.465-1.518-0.166-1.278-0.928l1.864-5.889
		l-4.969-3.67c-0.643-0.476-0.312-1.495,0.488-1.502l6.177-0.047l1.954-5.86C190.016,122.809,191.09,122.809,191.342,123.567z"/> <path style="fill:#F5F5F5;" d="M191.342,154.222l1.954,5.86l6.177,0.047c0.8,0.007,1.131,1.027,0.488,1.502l-4.969,3.67
		l1.864,5.889c0.242,0.762-0.627,1.394-1.278,0.928l-5.025-3.592l-5.025,3.592c-0.651,0.465-1.518-0.165-1.278-0.928l1.864-5.889
		l-4.969-3.67c-0.643-0.476-0.312-1.495,0.488-1.502l6.177-0.047l1.954-5.86C190.016,153.463,191.09,153.463,191.342,154.222z"/> <path style="fill:#F5F5F5;" d="M191.342,184.876l1.954,5.86l6.177,0.047c0.8,0.007,1.131,1.027,0.488,1.502l-4.969,3.67
		l1.864,5.889c0.242,0.762-0.627,1.394-1.278,0.928l-5.025-3.592l-5.025,3.592c-0.651,0.465-1.518-0.166-1.278-0.928l1.864-5.889
		l-4.969-3.67c-0.643-0.476-0.312-1.495,0.488-1.502l6.177-0.047l1.954-5.86C190.016,184.117,191.09,184.117,191.342,184.876z"/> <path style="fill:#F5F5F5;" d="M191.342,215.53l1.954,5.86l6.177,0.047c0.8,0.007,1.131,1.027,0.488,1.502l-4.969,3.67l1.864,5.889
		c0.242,0.762-0.627,1.394-1.278,0.928l-5.025-3.592l-5.025,3.592c-0.651,0.465-1.518-0.166-1.278-0.928l1.864-5.889l-4.969-3.67
		c-0.643-0.476-0.312-1.495,0.488-1.502l6.177-0.047l1.954-5.86C190.016,214.772,191.09,214.772,191.342,215.53z"/> <path style="fill:#F5F5F5;" d="M215.136,108.538l1.954,5.86l6.177,0.047c0.8,0.007,1.131,1.027,0.488,1.502l-4.969,3.67
		l1.864,5.889c0.242,0.762-0.627,1.394-1.278,0.928l-5.025-3.592l-5.025,3.592c-0.651,0.465-1.518-0.166-1.278-0.928l1.864-5.889
		l-4.969-3.67c-0.643-0.476-0.312-1.495,0.488-1.502l6.177-0.047l1.954-5.86C213.81,107.779,214.882,107.779,215.136,108.538z"/> <path style="fill:#F5F5F5;" d="M215.136,139.192l1.954,5.86l6.177,0.047c0.8,0.007,1.131,1.027,0.488,1.502l-4.969,3.67
		l1.864,5.889c0.242,0.762-0.627,1.394-1.278,0.928l-5.025-3.592l-5.025,3.592c-0.651,0.465-1.518-0.166-1.278-0.928l1.864-5.889
		l-4.969-3.67c-0.643-0.476-0.312-1.495,0.488-1.502l6.177-0.047l1.954-5.86C213.81,138.434,214.882,138.434,215.136,139.192z"/> <path style="fill:#F5F5F5;" d="M215.136,169.846l1.954,5.86l6.177,0.047c0.8,0.007,1.131,1.027,0.488,1.502l-4.969,3.67
		l1.864,5.889c0.242,0.762-0.627,1.394-1.278,0.928l-5.025-3.592l-5.025,3.592c-0.651,0.465-1.518-0.166-1.278-0.928l1.864-5.889
		l-4.969-3.67c-0.643-0.476-0.312-1.495,0.488-1.502l6.177-0.047l1.954-5.86C213.81,169.088,214.882,169.088,215.136,169.846z"/> <path style="fill:#F5F5F5;" d="M215.136,200.501l1.954,5.86l6.177,0.047c0.8,0.007,1.131,1.027,0.488,1.502l-4.969,3.67
		l1.864,5.889c0.242,0.762-0.627,1.394-1.278,0.928l-5.025-3.592l-5.025,3.592c-0.651,0.465-1.518-0.166-1.278-0.928l1.864-5.889
		l-4.969-3.67c-0.643-0.476-0.312-1.495,0.488-1.502l6.177-0.047l1.954-5.86C213.81,199.742,214.882,199.742,215.136,200.501z"/> <path style="fill:#F5F5F5;" d="M215.136,231.155l1.954,5.86l6.177,0.047c0.8,0.007,1.131,1.027,0.488,1.502l-4.969,3.67
		l1.864,5.889c0.242,0.762-0.627,1.394-1.278,0.928l-5.025-3.592l-5.025,3.592c-0.651,0.465-1.518-0.166-1.278-0.928l1.864-5.889
		l-4.969-3.67c-0.643-0.476-0.312-1.495,0.488-1.502l6.177-0.047l1.954-5.86C213.81,230.395,214.882,230.395,215.136,231.155z"/> </g>                
    </symbol>
    <symbol id="velo" viewBox="0 0 512 512">
       <g> <g> <path d="M418.133,209.068c-13.67,0-26.633,3.004-38.357,8.286l-27.324-48.58l13.38-23.791c0.751-1.331,0.973-2.756,0.973-4.181
			H384c2.27,0,4.437-0.896,6.033-2.5l8.533-8.533c3.337-3.337,3.337-8.73,0-12.066c-3.336-3.337-8.73-3.337-12.066,0l-6.033,6.033
			h-64.734c-4.719,0-8.533,3.823-8.533,8.533s3.814,8.533,8.533,8.533h32.879l-9.6,17.067H166.511l9.993-25.6h36.83
			c4.719,0,8.533-3.823,8.533-8.533s-3.814-8.533-8.533-8.533H164.83l-38.767,99.678c-10.061-3.695-20.872-5.811-32.196-5.811
			C42.112,209.068,0,251.18,0,302.934c0,51.755,42.112,93.867,93.867,93.867c51.755,0,93.867-42.112,93.867-93.867
			c0-34.389-18.645-64.444-46.31-80.785l6.298-16.137l93.312,85.538c-1.28,3.575-2.099,7.373-2.099,11.383
			c0,18.825,15.309,34.133,34.133,34.133c15.863,0,29.107-10.923,32.922-25.6h18.714c4.326,47.77,44.552,85.333,93.431,85.333
			c51.755,0,93.867-42.112,93.867-93.867C512,251.18,469.888,209.068,418.133,209.068z M170.667,302.934
			c0,42.342-34.449,76.8-76.8,76.8c-42.351,0-76.8-34.458-76.8-76.8s34.449-76.8,76.8-76.8c9.148,0,17.877,1.69,26.018,4.634
			l-16.572,42.607l-16.546,24.823c-2.62,3.917-1.562,9.225,2.364,11.836c1.459,0.973,3.106,1.434,4.727,1.434
			c2.756,0,5.47-1.331,7.108-3.797l17.067-25.6l17.092-43.802C156.459,251.922,170.667,275.781,170.667,302.934z M403.541,294.401
			h-61.705c2.458-22.084,14.336-41.327,31.488-53.717L403.541,294.401z M154.377,188.955l5.47-14.02h169.566l-52.992,94.208
			c-1.118-0.111-2.202-0.341-3.354-0.341c-8.568,0-16.307,3.277-22.306,8.508L154.377,188.955z M273.067,320.001
			c-9.412,0-17.067-7.654-17.067-17.067s7.654-17.067,17.067-17.067c9.412,0,17.067,7.654,17.067,17.067
			S282.479,320.001,273.067,320.001z M305.988,294.401c-2.057-7.919-6.818-14.737-13.329-19.337l50.005-88.892l22.238,39.535
			c-22.315,15.428-37.623,40.235-40.201,68.693H305.988z M418.133,379.734c-39.467,0-72.038-29.926-76.297-68.267h76.297
			c3.029,0,5.837-1.604,7.364-4.224s1.562-5.854,0.068-8.491l-37.419-66.517c9.225-3.925,19.354-6.101,29.986-6.101
			c42.351,0,76.8,34.458,76.8,76.8S460.484,379.734,418.133,379.734z"/> </g> </g>                
    </symbol>
    <symbol id="vk" viewBox="0 0 548.358 548.358">
       <g> <path d="M545.451,400.298c-0.664-1.431-1.283-2.618-1.858-3.569c-9.514-17.135-27.695-38.167-54.532-63.102l-0.567-0.571
		l-0.284-0.28l-0.287-0.287h-0.288c-12.18-11.611-19.893-19.418-23.123-23.415c-5.91-7.614-7.234-15.321-4.004-23.13
		c2.282-5.9,10.854-18.36,25.696-37.397c7.807-10.089,13.99-18.175,18.556-24.267c32.931-43.78,47.208-71.756,42.828-83.939
		l-1.701-2.847c-1.143-1.714-4.093-3.282-8.846-4.712c-4.764-1.427-10.853-1.663-18.278-0.712l-82.224,0.568
		c-1.332-0.472-3.234-0.428-5.712,0.144c-2.475,0.572-3.713,0.859-3.713,0.859l-1.431,0.715l-1.136,0.859
		c-0.952,0.568-1.999,1.567-3.142,2.995c-1.137,1.423-2.088,3.093-2.848,4.996c-8.952,23.031-19.13,44.444-30.553,64.238
		c-7.043,11.803-13.511,22.032-19.418,30.693c-5.899,8.658-10.848,15.037-14.842,19.126c-4,4.093-7.61,7.372-10.852,9.849
		c-3.237,2.478-5.708,3.525-7.419,3.142c-1.715-0.383-3.33-0.763-4.859-1.143c-2.663-1.714-4.805-4.045-6.42-6.995
		c-1.622-2.95-2.714-6.663-3.285-11.136c-0.568-4.476-0.904-8.326-1-11.563c-0.089-3.233-0.048-7.806,0.145-13.706
		c0.198-5.903,0.287-9.897,0.287-11.991c0-7.234,0.141-15.085,0.424-23.555c0.288-8.47,0.521-15.181,0.716-20.125
		c0.194-4.949,0.284-10.185,0.284-15.705s-0.336-9.849-1-12.991c-0.656-3.138-1.663-6.184-2.99-9.137
		c-1.335-2.95-3.289-5.232-5.853-6.852c-2.569-1.618-5.763-2.902-9.564-3.856c-10.089-2.283-22.936-3.518-38.547-3.71
		c-35.401-0.38-58.148,1.906-68.236,6.855c-3.997,2.091-7.614,4.948-10.848,8.562c-3.427,4.189-3.905,6.475-1.431,6.851
		c11.422,1.711,19.508,5.804,24.267,12.275l1.715,3.429c1.334,2.474,2.666,6.854,3.999,13.134c1.331,6.28,2.19,13.227,2.568,20.837
		c0.95,13.897,0.95,25.793,0,35.689c-0.953,9.9-1.853,17.607-2.712,23.127c-0.859,5.52-2.143,9.993-3.855,13.418
		c-1.715,3.426-2.856,5.52-3.428,6.28c-0.571,0.76-1.047,1.239-1.425,1.427c-2.474,0.948-5.047,1.431-7.71,1.431
		c-2.667,0-5.901-1.334-9.707-4c-3.805-2.666-7.754-6.328-11.847-10.992c-4.093-4.665-8.709-11.184-13.85-19.558
		c-5.137-8.374-10.467-18.271-15.987-29.691l-4.567-8.282c-2.855-5.328-6.755-13.086-11.704-23.267
		c-4.952-10.185-9.329-20.037-13.134-29.554c-1.521-3.997-3.806-7.04-6.851-9.134l-1.429-0.859c-0.95-0.76-2.475-1.567-4.567-2.427
		c-2.095-0.859-4.281-1.475-6.567-1.854l-78.229,0.568c-7.994,0-13.418,1.811-16.274,5.428l-1.143,1.711
		C0.288,140.146,0,141.668,0,143.763c0,2.094,0.571,4.664,1.714,7.707c11.42,26.84,23.839,52.725,37.257,77.659
		c13.418,24.934,25.078,45.019,34.973,60.237c9.897,15.229,19.985,29.602,30.264,43.112c10.279,13.515,17.083,22.176,20.412,25.981
		c3.333,3.812,5.951,6.662,7.854,8.565l7.139,6.851c4.568,4.569,11.276,10.041,20.127,16.416
		c8.853,6.379,18.654,12.659,29.408,18.85c10.756,6.181,23.269,11.225,37.546,15.126c14.275,3.905,28.169,5.472,41.684,4.716h32.834
		c6.659-0.575,11.704-2.669,15.133-6.283l1.136-1.431c0.764-1.136,1.479-2.901,2.139-5.276c0.668-2.379,1-5,1-7.851
		c-0.195-8.183,0.428-15.558,1.852-22.124c1.423-6.564,3.045-11.513,4.859-14.846c1.813-3.33,3.859-6.14,6.136-8.418
		c2.282-2.283,3.908-3.666,4.862-4.142c0.948-0.479,1.705-0.804,2.276-0.999c4.568-1.522,9.944-0.048,16.136,4.429
		c6.187,4.473,11.99,9.996,17.418,16.56c5.425,6.57,11.943,13.941,19.555,22.124c7.617,8.186,14.277,14.271,19.985,18.274
		l5.708,3.426c3.812,2.286,8.761,4.38,14.853,6.283c6.081,1.902,11.409,2.378,15.984,1.427l73.087-1.14
		c7.229,0,12.854-1.197,16.844-3.572c3.998-2.379,6.373-5,7.139-7.851c0.764-2.854,0.805-6.092,0.145-9.712
		C546.782,404.25,546.115,401.725,545.451,400.298z"/> </g>                
    </symbol></svg>